/* XPM */
static char *result[] = {
/* columns rows colors chars-per-pixel */
"48 48 101 2 ",
"   c #15171A",
".  c #17181E",
"X  c #121623",
"o  c #161C26",
"O  c #1A1E25",
"+  c #171E2C",
"@  c #191F29",
"#  c #1B1F36",
"$  c #1D2025",
"%  c #1D232C",
"&  c #1E2631",
"*  c #1F2931",
"=  c #21252D",
"-  c #22292F",
";  c #212731",
":  c #232A35",
">  c #282E37",
",  c #24273B",
"<  c #262D39",
"1  c #292E39",
"2  c #27303B",
"3  c #2A313C",
"4  c #242743",
"5  c #252945",
"6  c #2A2E43",
"7  c #252848",
"8  c #2A2D4A",
"9  c #312E46",
"0  c #312E4B",
"q  c #2D3441",
"w  c #2F3844",
"e  c #2D324B",
"r  c #303643",
"t  c #323944",
"y  c #33324D",
"u  c #363D4B",
"i  c #393C4F",
"p  c #2C2C52",
"a  c #2E2D5A",
"s  c #302F5F",
"d  c #2E3153",
"f  c #353353",
"g  c #3A3455",
"h  c #33325B",
"j  c #3A3658",
"k  c #3D395C",
"l  c #322E63",
"z  c #392F69",
"x  c #343163",
"c  c #393462",
"v  c #35326A",
"b  c #3B356E",
"n  c #3F386D",
"m  c #3F3772",
"M  c #3C3870",
"N  c #403B58",
"B  c #413667",
"V  c #423B63",
"C  c #44366F",
"Z  c #453C6B",
"A  c #483F6C",
"S  c #443A73",
"D  c #4A3E74",
"F  c #39424D",
"G  c #41474F",
"H  c #464C50",
"J  c #4B4667",
"K  c #4D416C",
"L  c #50456D",
"P  c #535960",
"I  c #4E4276",
"U  c #4E4279",
"Y  c #504377",
"T  c #514971",
"R  c #514479",
"E  c #55487C",
"W  c #4B3F80",
"Q  c #524482",
"!  c #5E4C84",
"~  c #594888",
"^  c #625786",
"/  c #65518C",
"(  c #645B88",
")  c #6C5595",
"_  c #705799",
"`  c #745B9E",
"'  c #747483",
"]  c #7D739C",
"[  c #795EA5",
"{  c #82799E",
"}  c #898795",
"|  c #95969D",
" . c #8784A6",
".. c #8D85A7",
"X. c #9191AF",
"o. c #B7B5C2",
"O. c #C6C0D2",
"+. c #D3D1DE",
"@. c #DFDBE6",
"#. c #F3F2F6",
"$. c white",
/* pixels */
": : < ; : 3 : > : > % : > > ; ; ; % - > : : ; ; : : > & : 3 : : : 1 & ; > > ; = ; % - > > & : % ",
"3 > < < q 3 > < < 2 ; t 3 q = ; ; ; > > 1 ; : : < > < < q q > > 1 2 ; t q q ; ; ; ; > > 1 & : : ",
"1 1 < 1 < 1 : < < : 3 w > & ; > & & % : : > : & : 1 < < < < : < < * 3 w : & ; > * & & : : 1 : & ",
"3 2 < * 2 2 2 : < < ; 2 2 & ; 2 < : & * : > : & > 2 < * 2 2 1 < > < ; 1 2 & ; 2 : : & * : 1 : % ",
"; & * & > : & % * ; $ > & % ; : & % & ; ; = < & % ; ; % > : % & : & % > & & % : & # & ; ; = : & ",
"; 1 1 1 3 > > % 2 2 3 q : ; > ; < & > 3 3 r 1 : - 3 2 2 3 > > % > 2 3 3 : ; > : > = > 2 3 r 2 > ",
"3 3 < < 1 > > ; 6 2 1 1 > > < : > > 1 * : > : * > q 6 2 1 > < ; 2 < 6 1 > > < : < > > * < > : & ",
"> 3 < : < : & < < & & : & & & ; & & < & < : : & > > * : < > & : < * * * & & & * * & > & : : : & ",
"> 3 : : : : & 2 > & * * ; % 4 & % = : : < < < * : t 6 ; > < % 3 > & : & & & & & % = : : : < : * ",
"; > : & & & $ % : & & & & + n p + @ : : & * * < , D y % & % $ % : % & & % + % @ o @ : : & & : : ",
"; 3 : . % > > w q < > o = = / W 5 O % % @ % ; > x Q 8   % > ; t q : > o % ; : : : O = @ + % ; > ",
"> q > = u < < < : : ; ; r 1 / Q p % 3 > > ; * 5 h ) N % F < < 2 : < ; ; w : > < > % q > > : : < ",
"> < : > > & < * ; * & ; t ! _ ` U 7 3 < , * & l D _ k > > & : & ; : & : w & : : & & q : * & & & ",
": : : 3 > * & & : ; & = 1 / [ ` Q 7 % : * & v U ) _ ) J * : * : : ; & & < * < : < ; ; : : & : : ",
"* : * > < & & : & & & & 1 / ` ` Q 7 % : & & v I ) _ [ T * & & < ; & & % : : > : & ; % : & & & : ",
"& : & : & X + % & & % @ = 0 ) ~ v a p a p a I / _ [ K q & X o % % % % % = % % ; % O = ; % ; % @ ",
": ; > ; % > > O : % % : > ; Z D S S D D D S E [ ` L 1 = % > : % : & % ; > ; : t ; @ 3 > : F > = ",
"1 < 3 q > > : > < % & & ; : x U E R R R E R R ! Q d f e > < : > ; & & & : ; > ; % & % % & % : : ",
"> < < : : & : : ; & & % & & A D D R U I C S U I v v m s 5 4 % - ; & & & & & > : % & * % & & % ; ",
"* & & : * & % % ; @ % + % & B ] ( S I ^ ..{ D U n v D D S c 5 , & @ @ @ % % % % % % o % % % % * ",
"; & : ; : > % 3 > : ; % % , B @.X.l D { $.#.n D v v S I R D v h 1 : & & % & ; : % O % ; = : ; % ",
"1 1 1 * & < : > : : : ; 1 x S O. .z D { #.+.S I b v v m I R V > * < : : : > 1 q > = > < > 3 > & ",
"* < < & : : : : * : ; 6 I v v A Y D R E E E R I b v v l Z R R Z : & : & : : : < 2 > : > : < & < ",
": 1 : & : ; ; : : * 6 D U v v 8 N R U D D I D v v v 8 & g I U U I , : ; ; : < 1 2 > & : : 1 < : ",
": : > : ; 3 > > : > < Y Y b b # | } X ' o.1 , , 1 4 < * > h m R R V : : : > ; ; ; % = : > ; ; & ",
"6 1 < < q 3 < < 2 < < D R D b 4 H G & F P - : : < < < 1 3 e n R R R V i 3 r ; ; ; & > < > ; : : ",
"2 2 2 < > < < < < 2 V I I R b 5 % + & & % > > & * 2 2 > > 8 n I R I R u : ; ; > : & & : : > 1 & ",
"2 2 < : 2 2 2 * < y R R R I b 6 : : & : : > : % 2 2 < * 2 8 n R U R I V 1 & ; 1 : : & : : > : % ",
"& * : & > : & % * 6 I R U U M , % % % ; & = : % % ; : % > 8 n U R R I R k , & * % % % & & = : % ",
"; > > 1 3 > > % > y R R I I S p 1 & > > q w 3 : = 3 2 < > 5 n Y I R R Y R y > : < = > > q w 3 : ",
"> q 2 2 1 1 < ; > e R R R U R m d > , : < < : * > q < > 6 d S U R R R R R f & 1 1 > > & * 2 , : ",
"> 3 & < < : & > * q R R I R I m 7 & > * : : : * > 3 > < 8 m R I R R I R R e & : & & < : < < * & ",
"> 2 : : < * * 3 : 6 R U R R I S 7 % : : : > : ; < 1 : : 8 M U Y R R I R R 8 % & % % < : : : : : ",
"; > : : % % % % : 1 I U I R I U 0 @ : : & : : : ; 1 * : p S Y R U Y Y R R 8 % % @ @ : : & : : : ",
"; > : . % > < w 3 : e I R R R R D 9 @ % @ % - > : 3 % 0 I I R I R R U Y R y * : : O % % O % ; < ",
"1 q > = F < < 6 > * 1 U R R R I E y 3 1 : : : > > q : j E I R R R R R I U y < > > % 3 > : : < : ",
"> < : > > & & & ; & , I R I R R R f 3 > < & & * : > ; g R R R R I R E R j , ; : & ; 3 > : & ; : ",
"* : : 3 1 * * < : & 1 I R R R I R f = : : & & : : : - f E R R R R R D E e & < > : ; ; : : & & * ",
": : & > < & & & : & < R R I R I E f % : & & & * : : & j R R R R R R R N 1 : > ; & ; = : & & : * ",
"& : & : & X + % % % = j I R R R R y O & % & % % & : % f Q R R R I Y j % = % % = % % @ ; % ; + % ",
": ; > : @ > > % : % % ; V I U Y R y 3 > : F > = > - > k E Y U R R k % ; > : : t & @ 2 > : F 2 & ",
"2 > 3 2 > > : > : & & & ; A R Y R f % % & % * < > < < k R Y R I B & & & ; = > ; % ; & @ & % ; : ",
"> < < : : & ; ; ; & & & & V U Y R g % % & & % < < < ; k Q Y R K & & & % % ; > : % & & % & & % : ",
": & & : : & = % ; @ + @ % ; Z R Y 8 o % % % % ; * * % j E Y R V ; @ % @ % & % % % @ O % % % % * ",
"& & : ; & > & 3 > : ; % % = Z R f O = = ; : = % % & - j R R B 3 > : ; % * % - : = O % & = : ; % ",
"> 1 > * : < : < : : : : : > A Q f % > > > 2 > : 2 > 2 ; j R V < : : : : * 6 3 q > = > 1 > 2 > = ",
"* < < & * : : : & : * & < : A k q : : 1 : > : : * < < % f Q c * & : ; & < & : < 2 > : > < < < : ",
", 1 > & : : ; < : : * & & > A y < < ; * : < < ; < 1 : * 1 k J < : : : & & < < 1 1 < & : * > > ; "
};
