/* XPM */
static char *result[] = {
/* columns rows colors chars-per-pixel */
"48 48 160 2 ",
"   c #17181E",
".  c #0E1A22",
"X  c #111722",
"o  c #151C25",
"O  c #1A1D25",
"+  c #151E29",
"@  c #191F29",
"#  c #1E2127",
"$  c #14212C",
"%  c #1D232C",
"&  c #1E2631",
"*  c #1E2932",
"=  c #21252D",
"-  c #23282D",
";  c #212731",
":  c #232A35",
">  c #292D37",
",  c #262E39",
"<  c #292E3A",
"1  c #27303B",
"2  c #2A313D",
"3  c #33333E",
"4  c #3D353E",
"5  c #242141",
"6  c #262C42",
"7  c #2B2D43",
"8  c #292748",
"9  c #262E49",
"0  c #2F2F4A",
"q  c #302E46",
"w  c #312B4D",
"e  c #2D3342",
"r  c #2E314B",
"t  c #303542",
"y  c #3C3643",
"u  c #323944",
"i  c #3E3946",
"p  c #33334C",
"a  c #363F4A",
"s  c #2B2C51",
"d  c #2E2C5B",
"f  c #312F5C",
"g  c #353452",
"h  c #393653",
"j  c #3A3853",
"k  c #363358",
"l  c #3B365D",
"z  c #3D395C",
"x  c #2F2E69",
"c  c #312F64",
"v  c #322F69",
"b  c #333162",
"n  c #3C3560",
"m  c #35326A",
"M  c #3A316B",
"N  c #473C44",
"B  c #473D48",
"V  c #40395E",
"C  c #433D63",
"Z  c #443C6C",
"A  c #493F6D",
"S  c #453B73",
"D  c #493E74",
"F  c #453D7A",
"G  c #493E7A",
"H  c #39414D",
"J  c #40464F",
"K  c #4C434E",
"L  c #54454E",
"P  c #534652",
"I  c #594753",
"U  c #5C4954",
"Y  c #5A4C58",
"T  c #654F5C",
"R  c #4B4167",
"E  c #4B416E",
"W  c #5F4A6A",
"Q  c #555862",
"!  c #55556B",
"~  c #4E4176",
"^  c #4E417A",
"/  c #524575",
"(  c #5F4D76",
")  c #524479",
"_  c #5B4B7B",
"`  c #6E5462",
"'  c #6B576D",
"]  c #725866",
"[  c #795A67",
"{  c #7B5D6B",
"}  c #634E7C",
"|  c #655177",
" . c #67507E",
".. c #6C537D",
"X. c #73577F",
"o. c #74587E",
"O. c #7A5C7E",
"+. c #666D72",
"@. c #686F75",
"#. c #82606E",
"$. c #846271",
"%. c #8A6674",
"&. c #83617C",
"*. c #8F6979",
"=. c #916977",
"-. c #976C7B",
";. c #9A6E7B",
":. c #9E707F",
">. c #544682",
",. c #5B4B84",
"<. c #5C4B89",
"1. c #624E8C",
"2. c #605386",
"3. c #65528B",
"4. c #755982",
"5. c #7C5C81",
"6. c #634F91",
"7. c #665191",
"8. c #695494",
"9. c #6D579E",
"0. c #735A9D",
"q. c #6C628E",
"w. c #756B95",
"e. c #76739A",
"r. c #755CA0",
"t. c #795DA3",
"y. c #805F81",
"u. c #846182",
"i. c #8B6583",
"p. c #8E6886",
"a. c #936A85",
"s. c #9A6E87",
"d. c #946B8D",
"f. c #996E88",
"g. c #9E7184",
"h. c #9E718A",
"j. c #846393",
"k. c #866499",
"l. c #A27382",
"z. c #A97685",
"x. c #AB7886",
"c. c #A47489",
"v. c #A8778A",
"b. c #AE7A8B",
"n. c #B37D8C",
"m. c #B87F8A",
"M. c #AD7990",
"N. c #B57E91",
"B. c #B7808D",
"V. c #B9808E",
"C. c #BC8292",
"Z. c #948BAC",
"A. c #9A91B2",
"S. c #C2868F",
"D. c #C18592",
"F. c #B4B1C3",
"G. c #CCCBD9",
"H. c #D5D5DF",
"J. c #E2E1E9",
"K. c white",
/* pixels */
": : , ; : 2 > : : < & ; > R h % ; % - > , ; ; % : : : ; : 2 > 2 E h.N & > 1 ; = * % = > : : ; % ",
"2 > , , 2 e , > < 1 ; u 1 $...0 ; ; > > > : : , > > 1 , 2 2 2 ~ ^ h.N 2 u 2 = - ; ; > > > : : : ",
"< < , < , > : , , * > u * $.N.o.g & & : * < > % : 1 1 1 : e A ) f.b.K e : % : 1 * * & * : < : & ",
"2 1 , * 1 1 1 : < : : 2 : $.C.5.S g & * : > : & , 6 : : > e ) ) v.b.B * 1 * ; 1 : : & : : > : & ",
"* ; : % 1 : % % * : @ > % #.C.g.4.l # * ; = : & = ; ; % t Z ) p.v.n.4 & ; % % : & % & & ; = : % ",
"- > 1 , 1 > > = > 1 2 e : #.N.V.p.M j 1 2 t 2 : - 1 2 : h ^ _ m.n.b.%.K : : > : : & > < 2 t 2 : ",
"> e < 1 < , > ; 2 < 1 < > $.N.B.u.G E * > > * * > 2 > , p ) O.n.n.b.C.Y $ : : : < > > * : < : * ",
"> 2 , * , , & > : * : : $ { B.n.s.} Z % : : , * > 2 : 2 l } n.n.n.n.N.[ P i & : : ; , * : : : : ",
"> 1 , : : : & > > & : : y =.N.b.m.a.Z q : : : : : 1 * p ^ } b.n.n.n.b.n.C.` + & @ % : : : : : : ",
"; > * & & & @ % : & % & -.N.n.n.m.p.G A * : * : ; 1 : g ) ..b.n.b.n.n.b.n.[ < & ; : : : * * : : ",
"; 1 :   % > : u t : > > -.N.b.n.m.a._ Z & @ ; > : > j D ..n.n.b.n.b.n.n.v.v.u._ _ Z % @ @ % : > ",
"> e > - a , : g A < < ;.n.b.n.n.n.n.s.G D < : : 1 2 z ~ ..n.b.n.n.n.b.n.5.G o.V.*.; 3 < : : : : ",
"> > : > > & * * 0 Z A v.m.n.n.n.b.m.s.) D : & : , > : h ) ..n.n.n.n.m.5.y.c.v.%.3 ; < : : & & * ",
"* , : 2 , : : & i s.s. ._ s.m.n.N.a._ D 7 : & : : : & p ) ) } } _ } } ^ u.D.*.t : : ; : : & & : ",
": * * > , * : : > I z.d.a.X.}  . .} ^ A ; & * * * : ; < z ) ~ ^ i.a.a.a.c.C.[ $ : ; % : & & & : ",
"& : & : & X o @ @ < l.m.m.a.y.u...G A q @ : @ % & : & : : w ~ _ n.m.n.n.n.n.l.I @ % # ; % ; % @ ",
": ; > : % > : = : 3 l.m.b.n.n.S.a.G E : : H 1 ; : : : : % > n ) o.b.B.B.B.B.D.%.$ o 1 > : H > & ",
"1 > 1 2 > : > > & > l.V.V.V.B.c...A p % * % ; > > > 2 e > > > z S 5.u.u.u.5.s.;.U U % # & % : : ",
"> , , : : * ; : > T x.a.p.p.f...F k % # % * % : : < , * : : * : E F _ .. . .o.a.f.a.p & & & % * ",
": & * ; : & % @ B a.a. .} } ^ ~ ^ c & % % % % : * f b < & ; % ; E  .c.C.n.V.c./ n n n & % % % * ",
"& % : : ; > % j _ _ } v.n.B.5.~ 1.1.d = = : = % ; l >.V % > % e E c.n.b.n.b.n.{ % @ % = = > ; # ",
"> < > * * , r ( g.s.s.n.b.b.n.O.<.6.m < 1 1 1 - C ) 3./ * < : < Z h.b.n.b.b.{ 6 1 ; > < > 1 > ; ",
"* , , & : : : > > > > :.n.b.n.O.,.0.6.f > : , ; V 7.t./ & : : < A ^ f.B.B.] , > 1 > : > , , : : ",
": > : * : * ; > ; ; ; y ;.C.5.~ <.t.7.c : 1 , & V 7.t./ & : : A ~ ~ / a.C.` * 2 1 > = : * 1 , ; ",
": : > * : 2 > > > > & ; ;.D...>.9.r.7.f > ; ; s Z 7.r.8.R 1 2 ) ^ p.s.O.} _ k = ; @ ; : > ; ; & ",
"6 < , , e e , : 1 1 % u |  .&.j.9.r.8.b 1 - ; b S 3.0.t.3.> < ) u.b.D.' 9 g < ; ; : > : > ; : : ",
"1 1 1 > , , , , > * 1 R g | N.M.k.8.^ x s 0 s b S 7.t.2.j > l ) v.C.{ J ; % ; > : & & : : > < & ",
"2 1 > * 1 1 1 : 1 : ; j 1 L T -.d.F M Z F F S S G _ 0./ > C ) u.b.[ < > 1 ; ; 1 : : & : : > : % ",
"* ; : % > ; % % * ; % ; = $ . K W M _ ^ / ) ) ) ~ ~ ,.~ s ^ u.m.{ : O 1 & % & * & % % ; & = : % ",
"- > 1 > 1 1 1 = > 1 2 e : : 1 & g ) S ) ^ ) D D ~ ^ ^ S x A a.&.3 > 2 2 : = < : : ; > > e e < : ",
"> e 1 1 1 1 > ; 1 > 1 > > > > : g 2.q.~ / ^ q.w._ ~ ) ~ m m v c r 9 7 : > > , : < : > * , , : : ",
"> 2 : : , , % > : * , ; * & % * 8 A.H.m ^ ) J.K.e.m ) S m M m m m b 6 * * * & : : : : : : , * & ",
"> 1 , : : : & > : : ; : & & & & 5 Z.G.M ^ / H.K.e.M D m m m m m m 6 & : & % * * % % : : : : : * ",
"; > : & ; & @ = : & & & % @ % + o p _ ^ ~ ) ,._ ) ~ S m c m d ; : % & & % % % + + # : : : : : : ",
"- 2 ; o @ < : u 2 : < o % : : : : O 8 D ) ^ S D ^ S M s : 7 8 u 2 : : o % ; : : : O % % @ = : : ",
"> 2 > - a , , , : : : ; e * , > < o Q F.u g F.! 7 r 8 , H : : < : : : - r * < < < % 2 < : : : : ",
"> , : > > * : & : * % : e & , * * % J @.& & +.u & > ; > > & * * : : & : e & : : & ; e : : & & * ",
": : : 2 : * : : : & : = > : , : : : % @ : * + * : , : 2 > * : : : * ; ; : : : : : : % : : : & : ",
": : * > < : * : * & & = > : , * ; & = : * * * : : : * > < * : : * & & ; : : > : * : = : : & : * ",
"& * & : * X + + @ % % % % % % ; % O = ; @ ; % # & * & : & . o + @ ; % @ = @ = ; @ @ # ; @ ; @ @ ",
": ; : : # > > % < % @ : < ; : u & @ 2 , : H > ; > ; > ; % : > @ : & % ; > : ; u ; @ 2 > : H 2 & ",
"< < < e > > : > : & & & ; ; > ; % * & # & % * , , > 2 e > > : < : % & & ; ; > ; % ; & @ & % ; : ",
"> > : : * * ; : ; ; & & & ; > : % & * # & & % , : , : : : * : ; ; & & & & & > : % * & @ & & % : ",
"* & * : : * % = ; + @ @ % = @ = % # o % % % # * * & & : : ; = = ; @ # @ % % % = % @ o % % % % ; ",
"* & : ; & : = 7 < : ; % % & = ; & O = ; % > = % ; % : : : : % 2 > : ; % & ; = : = O % ; = : = % ",
"< < > : , , : : : : : * : > 1 e , & : > > 1 > ; 1 > 1 ; : , : : : : : : * > 2 2 1 = > 1 > 1 > ; ",
"* , , & & : : : & : : * : : > > < , : > , , : : * , > & * : : : * : * * : : , , 1 > : > , , : > ",
": < : * : : ; , : : * * * , , < 1 > ; : * , , ; , > , * : : : , : : : * * , , < 1 : & : * > : : "
};
