/* XPM */
static char *result[] = {
/* columns rows colors chars-per-pixel */
"48 48 215 2 ",
"   c #0F0D16",
".  c #15151D",
"X  c #3B1E16",
"o  c #131623",
"O  c #181721",
"+  c #151926",
"@  c #1A1B25",
"#  c #161A29",
"$  c #1C1E2A",
"%  c #1D2027",
"&  c #1D222C",
"*  c #1E2631",
"=  c #21252E",
"-  c #3A2829",
";  c #212731",
":  c #232A35",
">  c #2A2C35",
",  c #262E39",
"<  c #292E39",
"1  c #27303B",
"2  c #2A313C",
"3  c #32343C",
"4  c #3E353C",
"5  c #4F1D06",
"6  c #4C2515",
"7  c #482518",
"8  c #4B2619",
"9  c #552813",
"0  c #5A2A14",
"q  c #532A1B",
"w  c #6C2E15",
"e  c #6D331B",
"r  c #68341A",
"t  c #743319",
"y  c #783619",
"u  c #753B1B",
"i  c #432925",
"p  c #4D2E25",
"a  c #4D2F28",
"s  c #533126",
"d  c #553328",
"f  c #4A373B",
"g  c #533A3A",
"h  c #683624",
"j  c #693823",
"k  c #763E20",
"l  c #653E31",
"z  c #5C433E",
"x  c #7C4423",
"c  c #7A452A",
"v  c #7A462B",
"b  c #674539",
"n  c #784C37",
"m  c #2E3641",
"M  c #333943",
"N  c #383947",
"B  c #433C44",
"V  c #4B3D43",
"C  c #483F4A",
"Z  c #523D42",
"A  c #3B4147",
"S  c #3B424B",
"D  c #3E4551",
"F  c #43424D",
"G  c #484549",
"H  c #5C4743",
"J  c #594546",
"K  c #444453",
"L  c #4B4653",
"P  c #444B53",
"I  c #4B4A56",
"U  c #45475A",
"Y  c #4C4B5C",
"T  c #5A4C54",
"R  c #524D5C",
"E  c #4C5558",
"W  c #4D545B",
"Q  c #52515E",
"!  c #5C545A",
"~  c #674B47",
"^  c #764D43",
"/  c #6E5147",
"(  c #6D524A",
")  c #785549",
"_  c #685457",
"`  c #765A57",
"'  c #76615F",
"]  c #4D4D61",
"[  c #524F62",
"{  c #4E5266",
"}  c #535264",
"|  c #5B5565",
" . c #545A61",
".. c #595B66",
"X. c #54566B",
"o. c #59576A",
"O. c #56586D",
"+. c #5B5A6D",
"@. c #4F5771",
"#. c #555871",
"$. c #5C5D72",
"%. c #685A64",
"&. c #635C6B",
"*. c #725E63",
"=. c #615F73",
"-. c #5A6368",
";. c #5B646B",
":. c #5E6176",
">. c #63656D",
",. c #786469",
"<. c #636173",
"1. c #696575",
"2. c #636C72",
"3. c #62637A",
"4. c #6A7578",
"5. c #6B757A",
"6. c #727B7F",
"7. c #864926",
"8. c #834B2B",
"9. c #8A4E2C",
"0. c #8D502E",
"q. c #96542D",
"w. c #874E32",
"e. c #8D5333",
"r. c #88553A",
"t. c #925535",
"y. c #955836",
"u. c #9C5A35",
"i. c #90563A",
"p. c #92593A",
"a. c #9B5C3A",
"s. c #A35D2E",
"d. c #A25E34",
"f. c #A15E39",
"g. c #9F613B",
"h. c #AC6336",
"j. c #A4623C",
"k. c #AB653C",
"l. c #AD683E",
"z. c #B36738",
"x. c #B36A3D",
"c. c #BA6E3D",
"v. c #BD713E",
"b. c #C3723E",
"n. c #8C5A43",
"m. c #875B49",
"M. c #935D43",
"N. c #945F49",
"B. c #835F59",
"V. c #8D614C",
"C. c #9C6243",
"Z. c #98644B",
"A. c #8C6354",
"S. c #856259",
"D. c #916553",
"F. c #A96641",
"G. c #A36847",
"H. c #AD6943",
"J. c #B46D42",
"K. c #B96F43",
"L. c #BD7245",
"P. c #B9724A",
"I. c #B27451",
"U. c #886965",
"Y. c #C37444",
"T. c #C77846",
"R. c #C17549",
"E. c #C4794B",
"W. c #CA7B4C",
"Q. c #C77B50",
"!. c #CC7E52",
"~. c #CE8154",
"^. c #6B728F",
"/. c #747D82",
"(. c #79758A",
"). c #847A85",
"_. c #768285",
"`. c #788489",
"'. c #7C8A8E",
"]. c #7D8C91",
"[. c #818D8F",
"{. c #828D92",
"}. c #859295",
"|. c #85969A",
" X c #86979B",
".X c #8A969A",
"XX c #8C9A9D",
"oX c #8D9EA2",
"OX c #929EA3",
"+X c #8FA0A4",
"@X c #93A2A5",
"#X c #98A5A7",
"$X c #95A5A9",
"%X c #99A6AB",
"&X c #96A8AC",
"*X c #9BAAAE",
"=X c #9DADB2",
"-X c #9FB1B4",
";X c #A1AEB3",
":X c #A3B2B6",
">X c #A5B5B9",
",X c #A9B7BB",
"<X c #A7B9BD",
"1X c #ABBABE",
"2X c #ADBDC2",
"3X c #B2BEC2",
"4X c #AFC1C6",
"5X c #B2C1C6",
"6X c #B5C5CA",
"7X c #B8C5CB",
"8X c #BAC9CD",
"9X c #BECCD2",
"0X c #C2CED2",
"qX c #C8D6D9",
"wX c #D3E2E6",
/* pixels */
": : , ; : < : < > 1 & : , , : & & & A _. X_.:X8X1X7X3X,X`.Q 3 : : < = : > , = = : & = , , * ; * ",
"2 , , , 2 m , : 1 1 = M m 3 % > A E ;X=X&X>X*X6X7X0XwX3XOX,XXXD D 1 % M m m : & ; * : , , : : : ",
"< , , , , , , , , * 2 m * & -.*X0XXX*X%X|.*X5X=X@X*X;X1X1X3X#XXX<X'.E 2 * * * , , * & , : : 1 * ",
"2 1 , : 2 1 1 : 1 , & : -.}.|.1X0X}.}.1X=X>X6X:XXX>X3X3X1X0X[.>X1X4X1X}.D % * 1 : : & : : , : & ",
"& : : & > : & & ; % Q -.`.*X$X$X%X%X}.1X:X[.I > $ 3 ;.OX0X1XXX1X&X$X*X:X;.;.A & * & * = ; = : & ",
"; < 2 , 2 , 2 % < 6.1X>X-. X X|.=X8X>.M > . $ 3 N > @ @ 4 3 [.6X+X'.&X'.6.qX$XE = * < < 3 3 1 : ",
"2 2 , , 1 , : > '.1X*X1X#X'.*X$X@XP . @ N I Q } | R [ B < . % 4.<X-X#X6.0XqX>X*X;.: 1 * , 1 : : ",
"> 2 : , , : * '.1X&X+X@X:XXXOX2.% % U %.D.b B U Y L L q / | M . 3 }.}..X,X#X-X5X<XQ * : : : : * ",
"> 2 : : , & P &X].+X-X}.XXOX> . C 1.A.7.h.r C Y R ] L 6 9.0.A.} 2   E 0X6X}.&X<X<X&X2 : : , : * ",
": 1 : * * # 3 _.*X:X<X4X.X> ; o._ f.M.%.f.h ] X.Y o.R 6 7.n i.p.' D O W '.+X X%X>X/.> * * * : : ",
"; 2 : . $ 2.|.;.[.1X2X@X3 > ..A.u.z.N.(.a.e Y X.R } R q x (.,.q.x.S.Y @ P *X&X*X4.6.#XS o & : > ",
"2 2 2 % 4.4X5X>X6.`..X; > >.b q.K.K.H.7.J.h ] X.R X.R q 9.I.C.u.L.h.b E @ E @X4.4.$X-X|.A : , : ",
"> 1 * M &X<X<X2X7X[.. ; ..C.x y.R.R.H.t.K.h ] +.L $.| q 9.!.H.u.L.j.x V.K . > @X>X X'.1X5.& * * ",
": : &  .1X>X-X<X5X6.@ Y V.v.c u.R.R.J.t.K.e [ $.Y $.| q 0.!.H.u.E.g.v v.) N = @X$X$X-X1X@X1 * : ",
"* , & ;.<X:X&X+X%X4 N _ j.T.c u.Q.R.J.i.K.h [ $.L =.| q e.Q.F.u.T.j.v L.l.T = >.-X}. X&X:XP * * ",
"* : & ;.2XoX_.].`.; Q p.s.z.r g.E.Q.H.t.R.e [ $.L $.| q t.!.F.f.~.j.x Y.x.d N 2 &X&X+X=X-XD # % ",
": : ; 6.<X|.'.&XI m ( d./ ! f g.Q.Q.F.i.R.e [ ^.B #.o.6 u.!.H.j.P.j.d ` u.k _ $ /.:X$X:X1X2.: : ",
", , > `.<X+X*XXX= K w.m.{ _ O.D.E.Q.j.e.R.e [ $.C #.| 8 t.!.F.f.K.m.#.X.[ c M., Y 2X:X=X5X-.@ : ",
", , : -.XX|.XX-.; T y.+.^ c.~ Z.W.!.a.w.R.e [ $.C +.| 8 a.!.F.C.J.A.%.g.! ` j.C @ 6.OX.X XA % * ",
": * & 2.6X X'.P # _ A.[ r.P.n i.P.I.n.e.Q.e C $.C #.[ 7 f.!.j.f.l.u.n T.a.+.G.J . 4.;X&X-XD + : ",
": & & oXwX9X<X .= o.} 3.3.:.3.$.#.X.:.,.J.j R $.V #.[ 7 M.U.&.%.*.%._ ,.,.$.%.L o }.9X4X2X:.@ & ",
", > 1 .X8X6X<X .@ 1.%.o.` A.( ` B.B._ ) K.e Y =.B #.| 8 t.U.o.| &.&.&.>.1.=.X.Q O '.3X6X>X4.* : ",
": : 2 {.+X2X2X .# m.I.] 9.Y.b k.W.W.f.c R.e L #.B o.[ 8 f.!.a.a.P.a.n L.u.| Z.T o .X2XOX-X5.* , ",
", : M oX'.&X2X..# m.c.%.T r.%.Z.R.P.H.8.K.w R 3.B #.o.q u.!.j.f.T.Z._ h.( %.c.b o .X.X|.*X`.* : ",
": * S &X].|.6X;.# ) b.C.} } R Z.R.j.H.8.P.t C 3.B o.[ h t.!.F.f.!.A.#.T { n.c.~ . |._.}.=X{.= & ",
"2 : M $X=X&X7X2.@ ) b.j.r.V.l l.E.f.H.k P.t C $.C o.[ h 0.!.f.u.!.F.g *.Z.u.c.~ +  X4.+X,X/.* , ",
"1 , , ;.4.6._.3 & ) b.j.j.T.e.l.R.i.U.B.K.w C 3.C +.[ q 0.K.B.D.W.j.7.K.c.k.c.H o P Q 6._. .* * ",
"m : M 2X}.oX:XF # ) v.j.j.L.0.H.K.) ^.).P.w C 3.L +.o.8 9.m.^.(.I.k.8.L.J.l.x.H o 5.>X&X,X{.: & ",
"* & M 8X1X6XqX5.+ ) K.k.f.K.0.H.Y.w.3.` K.t C #.[ #.[ 8 t.a.=.,.Y.H.8.K.J.c.x.H % $X9X8X6X{.; & ",
"; > D %XOX*X6X5.+ / c.j.f.Y.t.J.f.~ %.C N.t C #.[ #.Y 8 7.^ %._ N.H.8.K.J.J.z.H # }.1X4X3X{.< : ",
"2 2 S |.+X'.*X5.+ ( b.w.a.L.9.k.m.B.F.s T t C #.o.&.[ 7 l B.G.k ~ Z.8.J.J.c.z.J $ OX2X:X=X'.* : ",
"< , M +X+X$X1X_.+ / c.y.f.K.8.h.( D.b.j Z t Z X.$.+.C 6 ~ B.Y.w.~ C.7.L.J.J.l.J & $X5XoX=X].; : ",
", : S >X,X:X5X`.# ( v.j.j.L.c l.a._ ^ V m.t V { $.+.K q q.` ~ g B.k.7.K.c.J.l.Z & &X>X*X5X{.: : ",
"; < * 4.}.`. X! + ~ c.j.k.b.7.j.L.k.N.n.F.t V #.$.$.Y q d.H.n.n.R.k.7.R.x.K.x.J % /..X'.[. .* : ",
": < 3 oX X5.0X/.+ ~ K.j.i.) l g.L.L.T.j.F.t Z $.+.$.] 8 f.E.K.d.R.f.h M.h.L.l.Z * XX:X:X*X4.& > ",
"< 1 E =X*X}.wX[.+ J c.g.} } W V.L.L.L.j.k.t f [ $.$.K 7 u.R.J.u.T.M.[ X.` c.x.V & -X5X<X1X@X1 : ",
", &  .XX&X@X8X'.+ ~ z.*.! i.| V.Y.K.L.H.l.y f O.$.+.Y 8 q.R.J.y.Y.` &.n } A.z.V :  X|.$X5X$X: * ",
", & ;.+X].&X$X/.+ H Z.+.0.c.i.q.L.L.L.l.k.y Z 3.+.=.[ 9 t.T.K.u.Y.j.^ z.n.&.l.V % E +X3X<X*X2 * ",
", & ;.>X&X-X4X_.@ Y %.+.` ,.' _ ` _ ,.B.k.t f Y $.o.L s 0.I.A.m.N.N.n m.m.&.` C & XX6X,X:X&X2 * ",
"& * D  XoX}.oX-.@ +.X.3.1.<.<.<.&.| +.*.f.t f ] $.o.K j w.1.@.X.#.$.$.^.3.3.X.Y = _..X.X.X_.& % ",
"> ; M *X3X;X7X}.# T D.Q 8.F.a.8.l.l.F.0.j.u g $.o.$.] h u.G.V.w.M.C.n C.n.+.S.L 2 *X*X@X6.'.> = ",
"2 : N 7XqXqXwXOX# J l.| b s._ r.L.c.x.9.h.y g ] o.o.L l q.b.z.u.c.H./ s.r.&.F.f K 8X6X>XXXXX& : ",
", : M 1XqXqX2XoX= G z.A.o.T @.^ c.J.z.b ) y g U +.} K k v *.C.g.c.) ] g { / h.4 K 2X5X>X*X}.& : ",
": * : :X2X=X=X$X% V u.d.b | z c h.f.s.%.(.w g o.| o.] j l (.n.9.l.r.| O.( x q.4 P ,X,X1X*X2.+ : ",
"; & 2 2.+XoXoX$X& f u e 5 t r 0 u u u 9 h 5 i X.R } U 6 0 u u 0 u u r 6 u 9 e 3 E ,X@X&X>X2.% & ",
", , , 4.2X`.].$X: N a p - p p i s p s - p X 4 ] R Q Y i i d p i d s d 7 s i s 3  .<X$X$X5X4.& > ",
": : : XX3X$X=X#X> C U U U ] Y Y Y ] } [ { } } } ..+.} O.$.+.} $.;.:.#.O.$.X.] K ;.1X-X:X6X2.* , ",
", , : ].2X:X,XOXm N U B F W L K ] Y U W } Y ] } R } Y } } } } } } } ..X.} Y R K o.;X>X-X<X;.& : "
};
