/* XPM */
static char *result[] = {
/* columns rows colors chars-per-pixel */
"48 48 232 2 ",
"   c #07060B",
".  c #0A090E",
"X  c #0E0D13",
"o  c #100F15",
"O  c #121117",
"+  c #15141A",
"@  c #18171D",
"#  c #19181E",
"$  c #3B190D",
"%  c #171924",
"&  c #1C1B24",
"*  c #1E1D28",
"=  c #211F26",
"-  c #201E29",
";  c #1D2127",
":  c #1C222C",
">  c #1E2631",
",  c #1F2833",
"<  c #24242B",
"1  c #23232C",
"2  c #232631",
"3  c #282631",
"4  c #232A35",
"5  c #2B2B34",
"6  c #262D39",
"7  c #2B2E3A",
"8  c #302F3A",
"9  c #29313A",
"0  c #2A313C",
"q  c #32323D",
"w  c #3D353D",
"e  c #491F0D",
"r  c #59270D",
"t  c #482313",
"y  c #532613",
"u  c #5A2B16",
"i  c #5D2B14",
"p  c #612D17",
"a  c #693419",
"s  c #753A1E",
"d  c #783C1E",
"f  c #5D3A2E",
"g  c #47383A",
"h  c #573E3B",
"j  c #6D3D28",
"k  c #5E413B",
"l  c #7A4427",
"z  c #6B4739",
"x  c #774B38",
"c  c #2A2E40",
"v  c #2D3441",
"b  c #2F3844",
"n  c #333442",
"m  c #343A44",
"M  c #3A3A46",
"N  c #363A49",
"B  c #3E3D4A",
"V  c #443941",
"C  c #4D3E44",
"Z  c #423E4A",
"A  c #563F41",
"S  c #3C4147",
"D  c #3C424B",
"F  c #3D4052",
"G  c #41454D",
"H  c #4A434A",
"J  c #534246",
"K  c #594547",
"L  c #5A4549",
"P  c #444453",
"I  c #494755",
"U  c #454B52",
"Y  c #4B4B55",
"T  c #474A59",
"R  c #4C4C5C",
"E  c #554B54",
"W  c #534D5A",
"Q  c #4B5154",
"!  c #4D545B",
"~  c #55545D",
"^  c #674946",
"/  c #614E4D",
"(  c #744E43",
")  c #69514E",
"_  c #785448",
"`  c #654F51",
"'  c #655355",
"]  c #6C5455",
"[  c #63545E",
"{  c #69565A",
"}  c #6D595B",
"|  c #735554",
" . c #795B56",
".. c #735A5A",
"X. c #4C4E63",
"o. c #4B4F6B",
"O. c #514E60",
"+. c #4E5164",
"@. c #4C5367",
"#. c #535264",
"$. c #5B5664",
"%. c #555D64",
"&. c #54566B",
"*. c #58586A",
"=. c #5B5A6C",
"-. c #555670",
";. c #545A72",
":. c #5B5C73",
">. c #5C5F78",
",. c #645A64",
"<. c #6A5D63",
"1. c #635C6B",
"2. c #715E62",
"3. c #615F72",
"4. c #596066",
"5. c #5A636A",
"6. c #5D696C",
"7. c #5C6376",
"8. c #5D627B",
"9. c #62676D",
"0. c #786365",
"q. c #636174",
"w. c #62657D",
"e. c #666A78",
"r. c #766974",
"t. c #6B747A",
"y. c #79737D",
"u. c #727B7F",
"i. c #8A4C26",
"p. c #854C2B",
"a. c #8A4E2C",
"s. c #964F23",
"d. c #8D512D",
"f. c #92532D",
"g. c #9B562C",
"h. c #854E32",
"j. c #8C5333",
"k. c #865339",
"l. c #8D5639",
"z. c #935633",
"x. c #995737",
"c. c #955934",
"v. c #9B5A34",
"b. c #945B3C",
"n. c #9C5D3A",
"m. c #A65D2F",
"M. c #A35D34",
"N. c #A25F39",
"B. c #9E613E",
"V. c #B8632C",
"C. c #A3623B",
"Z. c #AB653B",
"A. c #AD663A",
"S. c #B46736",
"D. c #B36B3D",
"F. c #BC6E3C",
"G. c #BE713E",
"H. c #845845",
"J. c #8B5B44",
"K. c #8A5E4C",
"L. c #945F42",
"P. c #855E51",
"I. c #8F6149",
"U. c #9B6143",
"Y. c #96634A",
"T. c #896458",
"R. c #956856",
"E. c #9B6A55",
"W. c #A46641",
"Q. c #AD6A42",
"!. c #A56948",
"~. c #AC6B49",
"^. c #B46D43",
"/. c #BA6E42",
"(. c #B36F48",
"). c #B67043",
"_. c #BC7244",
"`. c #B6734D",
"'. c #BC734A",
"]. c #AB7051",
"[. c #88706F",
"{. c #997469",
"}. c #A57E6F",
"|. c #C27444",
" X c #C2764B",
".X c #C87748",
"XX c #C4794D",
"oX c #CA7B4D",
"OX c #C37B51",
"+X c #C97D50",
"@X c #5C6684",
"#X c #666B85",
"$X c #6E7983",
"%X c #737D83",
"&X c #768284",
"*X c #7B858A",
"=X c #7D8A8C",
"-X c #7E8F90",
";X c #7F9195",
":X c #828E8F",
">X c #828D91",
",X c #839193",
"<X c #8A959A",
"1X c #87989B",
"2X c #8B9A9E",
"3X c #909B9E",
"4X c #8C9CA0",
"5X c #929EA2",
"6X c #8FA0A3",
"7X c #92A2A5",
"8X c #95A5AA",
"9X c #99A7AC",
"0X c #97A8AC",
"qX c #9BAAAD",
"wX c #9DACB1",
"eX c #A1AEB3",
"rX c #A2B2B6",
"tX c #A6B5B9",
"yX c #A8B7BA",
"uX c #A8B6BB",
"iX c #AAB9BE",
"pX c #AEBDC2",
"aX c #B0BFC3",
"sX c #AFC0C4",
"dX c #B2C2C5",
"fX c #B5C4C9",
"gX c #BAC8CB",
"hX c #BDCED2",
"jX c #C0CCCF",
"kX c #C1CED2",
"lX c #CCD9DD",
"zX c #D7E4EA",
/* pixels */
"4 4 6 2 2 0 6 6 4 6 > 2 6 9 > 2 2 : < 9 6 1 : ; : : 4 : : 6 2 6 6 7 : 4 6 6 2 > 2 ; < 9 6 , 2 ; ",
"9 6 6 6 v 0 6 4 6 0 2 m v 0 2 2 2 2 9 4 2 7 D 4.$X&X%X$Xt.5.D > , 0 2 m 0 q 2 > 2 , 6 6 6 4 4 4 ",
"7 6 6 6 6 6 4 6 6 4 9 b 4 , 4 6 , > ; 6 t.5XwX2XiXlXhXlXlXgX*X$XT : 4 0 6 , 4 4 , , : 4 6 6 9 : ",
"0 0 6 4 9 0 9 4 6 4 4 6 6 2 > 2 9 D e.u.yX0X4XiXwXrXuXfXjXrXqXgX5X6.6.S , : 4 9 6 4 > , , 6 , > ",
"2 2 4 : 6 6 : : , 2 ; 9 : : , B t.gXzX6X6XrX2XeXfXuXwXtXrXpXyXaX1XyXdXqX6.9 ; 4 : : : 2 2 < 4 : ",
"< 9 9 6 6 6 6 < 6 0 0 0 4 2 t.wX6X0XiX-X-XsXiXiXrX>Xu.2XyXfXkXgX:XiXrXyXpX7XG 2 , 2 9 6 q v 9 4 ",
"0 0 6 9 6 9 6 2 6 6 6 0 *X=X6.5X7X6X0XyX1XqX:X! n 5 q q H e.eX3X0XtX7X1XqX=X6.3X! , 9 , 6 6 4 , ",
"R D 0 , 6 4 > 6 6 : m <XiXpX%X,X4X;XrXrX! q 0 B ! $.#.$.P q q 8 =XpX0X-XqXt.yXlXwX4.2 , 4 4 4 , ",
"8.7.#.Z 7 2 : 0 , m 2XrX0XtXtX*XwXqXt.m n R $.I M 1 5 T ' ] $.B 7 $.4XdX,X:XhXdXeXtX9., 6 4 4 , ",
"E.r.e.8.O.n : ; 9 <XtX0X6X1X6XwX=XI 8 W $.B 1 & & & 8 I g r k...9.b q e.,XeXwX-XiXsXiX! : 6 , 4 ",
"S.D.J.r.#X:.G 0 U 2X-X6XpX4X4X=X5 M =.B - & = & * # 5 -.h p p.a.U.0.#.7 ~ hXqX1X8X0XsX$X+ : 2 6 ",
" .Y.g.^.T.e.q.Y S 6.eXiXtXfX*X5 R W 3 & * * & & % + 5 -.A r _ #Xh.D.T.5.M D =X8X4XrX2XQ m , 6 , ",
"[.E.g.^.Z.b.r.7.%.&Xe.0XsX&X3 W P - & - = & # # @ o 5 -.A r L.{.j.D.G.k.#.m Q 9XrX*X6.rXiXD : , ",
").'.n.^./.D.d.{ :.t.7Xu.t.4 I P & - * & # # + + + o 3 ;.J i ^.|.B.^.'.i.x 1.q U *X&X1X,X4X,X0 > ",
"XX Xn.`._._.p.p.[.X.2XeX1 Z P & - & & % @ + + + O X 1 >.L u ^. XB._.'.p.M.I.#.2 ! iXqX8X0XpX4.* ",
" X Xn.'. X_.p.d.F...=.4.5 R 1 - - & # + + + o o o . 3 ;.^ i ^.OXB._.XXp.B.G.] F S 8X6X2X8XpX*X* ",
" XXXU.'.'.XXp.j.|.l.#.7 Z 8 & - & # + + + O O o o . 3 :.L i `.oXN.'.OXh.N. Xx E q %XwX2X2XrX1X4 ",
"OXOXC.'.'.+Xa.p. Xz.{ T Z - - & % + + + O o o o o . - q.L i '.OXN.`.XXd l ^.i.( B Y wX8X7XpX2X6 ",
"XX+XW.'.XX_.z z |.m.P.X.8 - = & # + + + o o o o o   < >.A p '.XXW.^.`.` o.1.z z.Y n 1XrX9XtXqX0 ",
" X+Xn.'.+X_ #.#. .g.L.X.8 - = & # + + o o o o . .   < :.A p  X'.C.Q.(.=. .] W M.] 7 5.pXwXrX7X6 ",
" X+Xn.(.+X0.H f =.( B.#.n = & @ @ + O o o o . o .   - :.C p OX XC.^.|._ ~.S.~ R.L.n * %X,X,X9.; ",
"OXoXz.^.+X`.z g.K.,.Z.#.n & & % @ o o o o o X X X   - >.C a '.R._ P.I.z K.E...<.] N * 5XyXyX5X9 ",
"'.R.{  .T.T.| ..0.1.] #.n & & # @ O o o o . o . .   - :.C a T.@X-.-.;.8.>.8.e.&.o.B 1 9XhXaX9Xm ",
"].:.-.-.-.;.>.>.e.:.o.&.8 & # @ + O o o o X o . o   - >.C a `.R.H.L.E.x I.E.} ,.0.M 1 8XfXrXqXB ",
"XX].x W.~.`.h.k.J.1.R.~ 0 & # # + o O o o X X X X   - 3.A a OXoXN._. Xz !.S.[ R.B.w < tX0X8XwXG ",
"OX+Xz.).oXE.K i. .[ A.' 7 & # @ + + + o o o o X o . = >.L s '. Xn. X`.=.| E $.S.B.m 5 qX-X7XwX@.",
"OXOXk.(. X<.W C =.x A.' 7 % % # @ + O o o o X X .   - -.A s '.OXx.'. X) X.1.J.S.B.n 9 7X&X4XtX%.",
"OX`.k.`.].U.W ,.E.f.Z.' 7 & # # + + + O o o o o o . 3 &.A p `.^.l.'.+Xp.l.^.A.D.b.v q &X6.8X4XS ",
"}.y.( ~.!.oXj.j.oXz.A.' 3 & = @ @ + + o + o o o o . - :.A p W.2.#X{..Xj.Z._.Z.D.L.m % 6.&X=X*Xm ",
"[.@X] Z.W.+XN.z..Xc.A./ 3 & & @ + + + O o o o o o X - -.C u N.| #X{..Xz.C./.).F.B.v 5 tXfXpXsX5.",
"T.=.f ^.Q..XN.z. Xc.N.` 6 & & @ @ @ + + + o o o o . - 1.V p N.^ q.J.|.z.C./.).D.L.q m iXgXfXpX%.",
"^ | L n.^. XC.z. Xx.Z.` 3 & & & @ + o + + O o o o X - -.V r | P.x ^ E.c.n._./.S.Y.8 S 9XuXiXiX%.",
"x.|.h H./.|.C.x./.v.Z.L 6 & & & @ @ + + + o o o o X - =.V u ,.'.S.j 2.M.n././.D.L.7 G aXiX7XrX4.",
"k.N.A H./. XQ.f.|.x.Z./ 4 = & # # + + + + + + o o o - &.g p |  .p.A E.z.n.|./.D.L.7 U dXeX7XyX5.",
" .^ ^ D.'./.x ( ).c.v./ 4 & * & # @ + + + + o o o o - &.w d Z.H.^ K..Xz.N./.^.D.J.7 P rXqXqXrX~ ",
".XW.d |.|.K.O.o.2.j.C.L 3 & & & # @ @ + + O + o o o = 3.V d '. XN.^..Xa.d.F.D.|.J.v q ,X-X*X&XS ",
" XQ.a. X|.P.E f *.) A.E 4 * * % + @ + + + + + + + o < #.V a '. XN.~.|.x Z P.Z./.k.7 ! rXiXiXtX5.",
" XZ.h.|././.k.s.J.1.S.J 3 & = & & @ @ @ @ + + + + + < #.V a /.'.N.Q.Q.#.[ o...S.H.9 ! sXtXrXsX$X",
"~.r.,.2.2.2. . .0.1.| P 3 & & & & @ # @ @ + @ + + + = =.C i ^.'.N.Q./.2.L.l.#.!.k.v U &X1XiXdX$X",
"~.2.1.$.=.3.>.>.w.3.o.R 3 - - * & = @ # # @ @ + + + < O.C a S.(.n.N./.h.L.S.] T.( b 9 =XiXrXtX&X",
"|.Z.n.D.D.D.h.Z.J.1.T.I 3 - - & & & % & + & @ @ # + 3 R C s P.q.*.*.:.3.q.w.e.-.o.m G rXyXrXrXu.",
"'.D.N.|.G.T.^ m.) 2.Q.C 1 = - - - & & & & @ @ @ # % - X.C d K.2.] { ....| 2.<.$.1.N S >X=X&X&X! ",
").D.v.).F.[ ~ E *.h.Q.C 3 - - & & & & & & @ & & % # - #.J d S./.v.M.F.x.l.V.' T._ 7 t.gXiX-X>X5.",
"/.^.z./._.n.E ,.L.g.W.Z 3 - - - - * & & & & & & # & 3 T C d l.x.M.C.~.$.z ( *.C.( 7 %XkXsX4X7X6.",
"_.D.d./.).D.p.D.S.z.C.Z 3 * - - * * & * - & & & = & - X.J a 1.y.a.M.Z.$.o.#.^ m.( c %XfXfX0X7X! ",
"n.A.p./.).D.d.D.Z.d.W.B 3 * - - - - - - - - & & = & - +.H r x H.s l a.l h x s l k 7 %XuXwXtX2XG ",
"w.v.p.^.).D.d.D.C.f.W.M 3 - 1 - - - - - - - - - - - 3 I g $ y p t y i p e y y y g n &XiX4XrXrXG ",
"E.C.l _.D.Q.d.D.Z.d.L.M 1 - 3 - - - - - - - - - - - 1 O.#.W W E E ~ W ~ W W W I I B >XiX7XrXtXS "
};
