/* XPM */
static char *_123cd8db10a4d25abde368743764a50c2fwek1N5GykA1WB[] = {
/* columns rows colors chars-per-pixel */
"48 48 150 2 ",
"   c #241301",
".  c #291604",
"X  c #2C1905",
"o  c #271A0A",
"O  c #2D1C0B",
"+  c #301B06",
"@  c #311E0B",
"#  c #2F1F10",
"$  c #321F10",
"%  c #34210E",
"&  c #39270F",
"*  c #2E2013",
"=  c #352412",
"-  c #392614",
";  c #3B2915",
":  c #372718",
">  c #37291C",
",  c #3D2C19",
"<  c #3A2E20",
"1  c #3F3124",
"2  c #412C15",
"3  c #412E1B",
"4  c #43311D",
"5  c #49341D",
"6  c #422F20",
"7  c #453421",
"8  c #493623",
"9  c #4C3A25",
"0  c #463729",
"q  c #4A3728",
"w  c #47392C",
"e  c #4D3C29",
"r  c #513C25",
"t  c #513E2B",
"y  c #4C3E31",
"u  c #533F30",
"i  c #54422D",
"p  c #59452E",
"a  c #59492F",
"s  c #564431",
"d  c #594633",
"f  c #5C4A35",
"g  c #5A4738",
"h  c #5E4C39",
"j  c #624D35",
"k  c #624E3B",
"l  c #684F39",
"z  c #635135",
"x  c #695537",
"c  c #67533B",
"v  c #66513A",
"b  c #63513D",
"n  c #63503F",
"m  c #66513C",
"M  c #65533D",
"N  c #67523D",
"B  c #66513E",
"V  c #66543E",
"C  c #64523C",
"Z  c #68523A",
"A  c #68523B",
"S  c #69533C",
"D  c #6C533D",
"F  c #69553D",
"G  c #6A543D",
"H  c #69543F",
"J  c #6B553E",
"K  c #6A563E",
"L  c #6B573F",
"P  c #6A553D",
"I  c #6C5A3D",
"U  c #715C3F",
"Y  c #665342",
"T  c #665440",
"R  c #675541",
"E  c #675445",
"W  c #665441",
"Q  c #6A5540",
"!  c #685640",
"~  c #695741",
"^  c #6B5641",
"/  c #695743",
"(  c #6B5643",
")  c #6C5742",
"_  c #685546",
"`  c #695642",
"'  c #6A5842",
"]  c #6B5943",
"[  c #6E5841",
"{  c #6D5843",
"}  c #6F5B43",
"|  c #6B5945",
" . c #6E5944",
".. c #6D5B45",
"X. c #6F5A45",
"o. c #6C5A46",
"O. c #6D5B47",
"+. c #6E5C46",
"@. c #6F5D47",
"#. c #6C5A44",
"$. c #6A5748",
"%. c #6E5C48",
"&. c #6F5C4B",
"*. c #6E5C49",
"=. c #715842",
"-. c #705A43",
";. c #705B46",
":. c #715C47",
">. c #725E46",
",. c #765D47",
"<. c #725D45",
"1. c #715C49",
"2. c #705E48",
"3. c #725D4A",
"4. c #715F4B",
"5. c #745F4A",
"6. c #715E4A",
"7. c #785F49",
"8. c #746145",
"9. c #796147",
"0. c #73614B",
"q. c #746048",
"w. c #75604B",
"e. c #72604C",
"r. c #75604D",
"t. c #74624C",
"y. c #74624E",
"u. c #76644E",
"i. c #74614C",
"p. c #7A644C",
"a. c #7A6A49",
"s. c #776551",
"d. c #766452",
"f. c #796751",
"g. c #7B6651",
"h. c #7C6752",
"j. c #786554",
"k. c #7A6652",
"l. c #756855",
"z. c #7D6954",
"x. c #7F6D59",
"c. c #7F6C5B",
"v. c #7D6B59",
"b. c #806B56",
"n. c #826C54",
"m. c #816F5B",
"M. c #836E59",
"N. c #85715D",
"B. c #8A725A",
"V. c #867160",
/* pixels */
"_ q : u 3 3 6 g s / / V V a 5 & z z r 5 9 i i s h < < , } C P P l l p j d s g 7 # = , $.4.;.=.,.",
"_ g 6 : - q u u f 7 5 i i i , & z a r a s 7 w h w 1 8 a } ' j a D j k D s g g - O < d 4.5.5.;.,.",
"h h 0 . - q s d i 4 i i ; , 9 , p p i r i i e s < i , K Y X.D U D f ( D s h s $ = y j.&.1.4.l l ",
"t g u : 6 ; 8 g 5 i i 9 & i ..V p p p 9 i g e 7 f b < @.) l l I D j ) k g g < : , s v.T D m t j ",
"t u e 3 u - - t i i 4 ; e ' w.&.<.f p t d i , 7 i e - V b.X. .F Q Q l s h e O 7 w e &.s d u 8 p ",
"u e 6 - q 8 3 - i 8 , i u.f.' ` g.I k 9 e 9 = , 8 ; % e g.;.q.F k k u t g 1 O s t < s s u t e p ",
"8 3 - 0 f Y s 8 % % e e.x.u.1.4.-.;.2.5 , e 3 8 / h e 4 p f f t t i e t e - : e 7 $ 6 g t t s 9 ",
", : , Y r.m.r.X.; ; f X.f h E k ) m +.i 4 5 5 | o.4.C 4 5 p t 9 e e e s , . , ; ; . - Y r t u 3 ",
"+ 9 ` &.%.y.y.e.T % f s u k d h b f b i r 8  .<.+.R b f 9 3 8 i e i 0 % O # , < h n i 0 i 8 < w ",
"8 h _ X./ O.e.y.V = 8 s k k Y Y h h R i 9 t ;.g.2.' z f i 9 4 , 7 = O 1 8 ; 1 W &.h &.E : 1 h 1 ",
"z b ' ' | O.2.0.V , O 8 g u g u s C V - 4 F w.>.w.-.F f h h i < O w e ; , i b n o.4.l.4.i 1 1 i ",
"C b C ' %.O.O.+.V 5 o , t q t u g s t % t B.p.p. .-.F d p h i 0 s w 1 < s n f i g 4.W / l.1   s ",
"h f a b C b b k h e ; 6 0 e u u s : % % f p.D p.>.>. .j h h 9 = w : * i b i e h i i s $.h > * i ",
"f a a i i i i i s e 7 u 6 6 0 0 i 0 8 ; 5 D p f I P v P ' f 4 o o * * > 0 s p d i i h i = # 1 w ",
"i a i 9 9 i 9 5 e t , h 3 @ u g W l.+.s 3 j j r r r i i s 8 < 7 h w o O e h i 9 f f w : O * > < ",
"5 i f i i i i i s e : $.q O r.c.l.e.V / r r r r p r p i 8 ; i d.l.l.h - # 7 a h f < % % = , ; O ",
"9 , i f i i i e r @ @ Y l q V.r.d.%.%.| b i i p r p r 5 2 x n.U 8.I ..a & ; i a , 1 & & i P z z ",
"h 7 % i e i , ; $ r g 8 2 q ,.8 i a h b h p i 5 p a 5 5 9.9.x U a.I I +.a < , 1 i , ; z p.-.z x ",
"| f O ; ; , X 9 r 3 5 8 - @ 6 j a s a i j V r 2 r & a n.U n.B.U I 8.8...I a 1 * 8 8 z 8.p.I I x ",
"b b % 8 ' f O ; 8 7 t Y ( e 5 5 i i i i i j l t 2 2 z n.,.D U U z I V a M z i & s R z.t.z U 9.l ",
"h / 0 0 x.C 8 e u r.1.r.r.Y r - i s s i d C k t 2 + 2 l D Z l j K c a a f q ; 6 v.&.3.r.( ) I j ",
"a W i ; m 8 f e.k.B.3.r.l 8 q q i i s d s i 9 8 t j 8 - j D I <.c z a i t 6 3 > d._ E _ k f p j ",
"i i & , f 4 t s d 1.r.1.r r 8 8 o - 8 t 9 3 t _ b.k.r.s - 9 Q f f f s e q u y : s n E g t t u p ",
"i a , 1 4 . 7 g k u Y l 5 u 7 k / < @ 8 ` 5.3.7.Y 3.l ( ;.- . D _ i e d u u e , g n g u j k j j ",
"h & > h ..a 0 f h f s f f 2 u b.3.5 - l 5.3.2.D k.j g 1.l 3 $ $ i f a g i s q q : k u u ( k d u ",
", * a l...4...1 d j ( f 2 u l t j d u d f ( z.;.u j l j 3 $ 2 3 O , i s i g q = $ Y ( Y j t u d ",
"& a *.4.l.l.V & 8 t t 3 3 u r l 3.=.=.k d t k j u j u 4 - q u u , % : h g s 0 , q g p u u t t r ",
"i e.| h ' V i ; 3 3 - % 8 4 q M.>.=.Z l l t j j j 8 3 4 r f Y k k 9 < i s 1 1 q q - $ - 3 q 8 @ ",
"s s s s i s a - g t s r 8 @ 4.p.,.,.D p j r p r 9 5 i b l h d d a / s ; 7 4 2 3 3 3 u p t t 8 @ ",
", 9 s i i a 8 ; l 2.g.$.l @ 5.` n.7.>.Z z 2 r a z c +.+.Y h h g a / s O % @ 3 t Y Y b.b.X.X.l s ",
"& 9 h 9 f s O 8 f ( k.7.( $ j D D l D D 8.2 f n.8.+.K z f z b a k g a ; @ @ d 5.k.1.b.=.X.2./ / ",
"i = a i 8 5 o i f q 3.3.7 - l r p x U l -.9 x 8.} C I ..c f f h f a L 9 @ 4 r.k.1.( b.=.V X.T / ",
"s o , i < , @ ; i a i h , % i f d r p Y p r j n.l D D D x U x j z k f d % i %.k k O.y.e.o.o.%.o.",
"i ; i h b T i i ; 7 , , % % , a t u u p u r u b.n.l D U U x z x j f h t = V T i s 9 i h / T / 4.",
"% i ..! / 4.f f 4 ; = i i , ; / t l d 9 r 5 r b.=.n.n.D 9.U D U v i h 9 , c i i s i i f f i h T ",
"= f e.b b V h b f % 9 0.e.k 9 a Y l r 5 r 8 5 p j U n.D D U U j f f h ; , f i f i a s i 8 i i i ",
"h ..O.b | %.h h i ; V s.O.u.h % I r 2 r l k p 5 5 p D l j l j r i v e O ; i h i i i 8 8 i b a 8 ",
"..%...| O.T b h 9 , 2.l.T %.+.% 5 2 p <.5.,.I a 2 5 r j l u u d h e - - 4 % 4 8 9 , : , 0 , : % ",
"h h b T h i f s 9 9 | l.e.T | 4 + p p.a.>. .' } p r r j l u u j f ; 4 d f % % f V V V b a 8 , , ",
"h i i a s s f i ; f V f e.+.T ; & q.M.-.-.-.z x =.l r r j j j u ; % +.2.' s f d.| o./ f a f i , ",
"f e f f 9 e a i ; i a i i k k ; 5 I 8.8.t...} C k l Y d q 7 6 ; , / b h V f R 2./ e./ i g s ; 4 ",
"f k i 9 8 8 7 ; - i i i 0 8 i ; 4 z K ..e.a.s.8.( k l k 7 - ; , h 4.T b b s f 2.d.%.V f k i ; < ",
"i f 8 i k f h i = , 4 8 8 7 , X 5 z z k C x L c ( h ( 1.q - 0 d / b f a g i i 4.y.O.a i 9 , , ; ",
", < - f l.2.u.O., 9 i f k b a & i V f a i i i i d t Y Y 6 2 s n f i i e i s i O.k f e s 9 4 a i ",
"4 ; 5 / 2.4.y.i 8 T 4.4.T / / i i V h a i 9 i i e f m t = 4 f a g i s i s f 9 i g i e z 9 & e i ",
"9 4 a V f / T < h %.%.T h b k , a V k a i 5 9 i t Y b 5 , a / f i i s i s g e , i f i , O , i , ",
"9 ; i i i i 9 i l.y./ V T T a = f V i i i 4 e e i f 8 - 8 V R k i i i i i a a , , 9 9 O ; +.s.k ",
"V < i s g i ; o.y.2.| %./ h a ; h f i 9 i 9 i e b f ; = s T k V f f i s a i f 8 ;   % 4 b l.] / "
};
