/* XPM */
static char *_4a725d600ac4d56f747b366cab78865SZHb8PBFGhCxdMEV[] = {
/* columns rows colors chars-per-pixel */
"48 48 233 2 ",
"   c #0C131F",
".  c #1A181D",
"X  c #300F00",
"o  c #2C1509",
"O  c #341501",
"+  c #3D1B03",
"@  c #371A0B",
"#  c #281A15",
"$  c #2B1D1C",
"%  c #341D13",
"&  c #3F2008",
"*  c #2C201D",
"=  c #39261B",
"-  c #141B25",
";  c #1B1E25",
":  c #131B28",
">  c #121A2D",
",  c #1A1F2A",
"<  c #251E23",
"1  c #1E2025",
"2  c #1D222C",
"3  c #142234",
"4  c #1E2631",
"5  c #1E2936",
"6  c #1C2839",
"7  c #232225",
"8  c #2C2523",
"9  c #22252D",
"0  c #2A2629",
"q  c #2C2A2C",
"w  c #322524",
"e  c #342725",
"r  c #352924",
"t  c #3C2C24",
"y  c #352C2C",
"u  c #3A2E2A",
"i  c #3D312C",
"p  c #3D392E",
"a  c #212631",
"s  c #2B2637",
"d  c #232A35",
"f  c #292D36",
"g  c #262E39",
"h  c #292F39",
"j  c #342D31",
"k  c #392F30",
"l  c #2B3037",
"z  c #27303C",
"x  c #2A313C",
"c  c #3C3334",
"v  c #38353A",
"b  c #431300",
"n  c #441D04",
"m  c #4C1D02",
"M  c #441D09",
"N  c #4B1F0A",
"B  c #511F00",
"V  c #492208",
"C  c #4E220A",
"Z  c #532405",
"A  c #5A2807",
"S  c #51240B",
"D  c #55290A",
"F  c #5C2A09",
"G  c #482917",
"H  c #532D17",
"J  c #6F2305",
"K  c #622E09",
"L  c #69310B",
"P  c #733509",
"I  c #7C3B0B",
"U  c #662C15",
"Y  c #673614",
"T  c #783B14",
"R  c #412D25",
"E  c #443224",
"W  c #44342B",
"Q  c #4B3628",
"!  c #563926",
"~  c #423632",
"^  c #443A33",
"/  c #4B3C33",
"(  c #453638",
")  c #443C3C",
"_  c #4A3E3B",
"`  c #693B22",
"'  c #5B4418",
"]  c #794518",
"[  c #7C581C",
"{  c #574626",
"}  c #5A432E",
"|  c #4F4931",
" . c #4D463A",
".. c #594537",
"X. c #53443C",
"o. c #674828",
"O. c #75512F",
"+. c #795634",
"@. c #7D662D",
"#. c #2D3540",
"$. c #2F3844",
"%. c #313742",
"&. c #333944",
"*. c #3A3B46",
"=. c #3C3C44",
"-. c #453D41",
";. c #573D40",
":. c #3B414C",
">. c #494447",
",. c #564945",
"<. c #534A4A",
"1. c #5C524C",
"2. c #464753",
"3. c #564D53",
"4. c #4E5158",
"5. c #5A5354",
"6. c #555359",
"7. c #5D5A5D",
"8. c #66564A",
"9. c #68534D",
"0. c #7A5948",
"q. c #655B59",
"w. c #726253",
"e. c #766558",
"r. c #4E5463",
"t. c #5A5B64",
"y. c #685D62",
"u. c #5D606B",
"i. c #68666A",
"p. c #756969",
"a. c #79726B",
"s. c #6B6A78",
"d. c #736B73",
"f. c #6D717B",
"g. c #74737B",
"h. c #7B7879",
"j. c #823D0C",
"k. c #8C3909",
"l. c #893E12",
"z. c #85410D",
"x. c #8B440E",
"c. c #9B4708",
"v. c #834212",
"b. c #8D4815",
"n. c #924A14",
"m. c #974D17",
"M. c #825912",
"N. c #9A521B",
"B. c #9B5418",
"V. c #A74908",
"C. c #AC560D",
"Z. c #B8590C",
"A. c #A7591A",
"S. c #B85A19",
"D. c #AD6219",
"F. c #BB6719",
"G. c #A67816",
"H. c #BC711A",
"J. c #884B25",
"K. c #955626",
"L. c #925332",
"P. c #A15F27",
"I. c #906C31",
"U. c #AB6927",
"Y. c #B96723",
"T. c #B0742E",
"R. c #B86737",
"E. c #C86D12",
"W. c #C97719",
"Q. c #D4791A",
"!. c #CB7626",
"~. c #935F40",
"^. c #8C6B4A",
"/. c #956F55",
"(. c #AE7A4D",
"). c #856D67",
"_. c #8B7972",
"`. c #C07F40",
"'. c #BA8C15",
"]. c #B98628",
"[. c #B38831",
"{. c #D78A0E",
"}. c #D88418",
"|. c #D99A1A",
" X c #E68C0D",
".X c #E49617",
"XX c #DAAC1C",
"oX c #EBA60C",
"OX c #E8A519",
"+X c #F3B611",
"@X c #C98525",
"#X c #CF8F2C",
"$X c #D98825",
"%X c #DA9527",
"&X c #EA9123",
"*X c #ED9C23",
"=X c #DBAD31",
"-X c #E6AA25",
";X c #EBBB29",
":X c #F6B12C",
">X c #E9B833",
",X c #F6CD0F",
"<X c #F7D51A",
"1X c #FCE616",
"2X c #F4D22F",
"3X c #FFE833",
"4X c #938272",
"5X c #AA8C6F",
"6X c #C68A48",
"7X c #D69D55",
"8X c #CCA556",
"9X c #D4A566",
"0X c #D5AC71",
"qX c #E2B26A",
"wX c #F0CC4C",
"eX c #FEEF49",
"rX c #797B86",
"tX c #847E87",
"yX c #7D838D",
"uX c #7C8594",
"iX c #86868C",
"pX c #958E8B",
"aX c #858995",
"sX c #A69A8C",
"dX c #BEA88E",
"fX c #959FAC",
"gX c #929FB0",
"hX c #9DA7B3",
"jX c #AEADAF",
"kX c #C4A283",
"lX c #C5BDAE",
"zX c #EFC585",
"xX c #DFD7CB",
/* pixels */
"d d d a d x f g f g 2 d f h a 9 4 2 9 h h a a 9 d a f 4 a x l h d l 4 d f h a 9 a 1 a h f 4 a 2 ",
"x g g g #.x g d g z a %.$.x a a a a d h h 9 d d g l g g x x h d g z 9 %.$.x a a a d d g h a d d ",
"h g g g g g g g g d x $.d 2 d h 5 4 4 d 5 h h 4 5 z h h g g d g g d z $.d 4 a d 5 4 4 d 5 h z 4 ",
"x x g d x x g d z d a x z 4 a z d d 4 d d h d 4 z z g 5 l z z g g g d x z 4 d h d d 4 d d h d 2 ",
"a a d 2 f d 2 2 4 a 1 z 4 2 2 d 2 2 2 4 a a d 2 2 a d 2 h d 2 2 4 a 1 h 2 2 a d 2 2 2 a 4 9 d 2 ",
"9 h h g h g h 9 l x x x f a h a d a h l x v x d 9 h h h z h l 2 x x x x f a h a h a l x x v z d ",
"x x g g h g g a z d z z h d z d z l h d z z d d l x h z z h 5 2 d 4 d z z d z d g l h 4 z z 5 d ",
"h x g g g d a d f 5 5 d 4 4 4 4 a a d 5 4 4 2 3 d z d d :.i.4.4.4.:.x d 4 4 2 5 4 a d 5 d d d 4 ",
"f z d g 5 g 4 l g 4 d d 2 4 4 4 2 9 g 4 &.u.6.:.&.x g 5 r Q / <.5.i.rXiXf 9 d d 2 2 d d d g d d ",
"a h d 4 4 2 1 2 d 4 4 2 2 2 2 2 - , d a u.p.d.g.g.h.g.f.g.i.5.>.) -.>.p.>.  - - 1 1 5 5 5 d d d ",
"a x a . 2 l 5 $.z 5 g 1 2 a d d d ; ; %.<.* H E / / X.1.i.i.i.p.rXaXuXiXrXu.r.2.$.2 2 2 . 2 a d ",
"x #.g 9 :.z 6 p | | d 2 %.4 z z g 9 x 5.r O b.b.] T L D n & & R E W X.1.q.s.yXrXh.iXyXh.uXx d d ",
"d f d f g 4 2 I.2XXXE 5 $.2 5 d a 2 =.<.o O ] N.m.m.N.B.B.m.b.] P K D G G = r i v v >.gXhXr 4 d ",
"d d a x z d 5 p G.{.' 3 l d f d g 4 3.u O + A x.] I T v.b.v.n.B.m.m.N.m.b.v.I K H G ^ gX6.# d 5 ",
"5 d 4 f g d d 4 d ].] 1 6 3 6 f 2 *.3.o + + n P I j.n.z.z.j.j.j.v.v.l.v.m.b.b.m.B.c.e.yXt = 0 4 ",
"4 d 4 f 4   : 2 > o.D.G } O.| 9 2 6.y O n + + A K K K P T j.z.z.x.x.v.v.v.I ] v.z.O.uX7.X Q 8 2 ",
"f 4 d f 1 h h 1 3 u ].H.!.A.T x *.6.o + V + + F D F F F A A F K K P P I z.x.x.n.j.9.yXt O E t 9 ",
"z z x x z z d l | ].].B.I D t 4 t.c X n + + + Z Z D D A F K F F K K K K F K L P Y p.q.o n V W 9 ",
"d h d d 5 a 3 o.:X%Xz.T J...5 2.iXi.,./ G G V V n m B Z A A A F F F K K F F F A } rX^ O V & E 0 ",
"4 4 d d 4 a 2 w J.Y o.dXsX/.q s X.1.1.1.i.q.8...} Q H C m m B Z Z Z A A A A F H d.i.@ & V V Q 8 ",
"a 2 d f a f 2 z g 5 h lXxX_...) i = = = G Q ' ..8.w.w.8.8...! H D S V m m m m 8.yX^ O V + E ^ 1 ",
"z h h 4 5 z f d g g : pXxX5XL.R o.o.O.[ M.'.M.'.'.K ' ' }  .1.,.1.q.1.} ! H G g.a.o & V n ..r a ",
"5 g d 4 d d d g 5 2 5 q.lXdXL.N.OX|.oX,X3X1XoXoX,X'.@.G.{.' * % u >.3.5.i.g.g.iX<.o & V H / 0 d ",
"d h g 4 d a a 1 - 2.t.>.(.kX`.S.F.{.+X<XXX,X,X,XoX|.XX;X3X=X[.#X+. .y y i ) <.i.r @ V V Q t d a ",
"d f g 4 d x 2 q t.6.U V.K.`.!.S.@XE..X+XoX<X1XoX2XeX,XH.2X-X|.&X*X#XL.O.X.<.>.~ c + M V Q 0 a 9 ",
"z 5 h v x z =.d.rXq.)./.Y.%XA.Z.-X X+X1X,XC.{. X|.-X$XE.}.}.!.E.!.!.!.e.i.5./ t k % + G W 9 d d ",
"z v J.K. .5 p  .y.t.rXuXaXpX_./.J.(.8X{.{.>X2X<XOX|.}.2X=XW.&XZ.E.!.a.t. .G u < k r @ / 8 g g 4 ",
"6 +.H.K.^.5 0 0 k y c ( 6.5.p.h.aXuX6.p.^.8XwX|.Q.oXE.}.:XOX}.^.d.d.3.( R = $ o r ~ W W a g g 2 ",
"W K.U.(.qX` H C k j $ w c c / X.a...w.aXaXiXaXiX_./.L.Y.F.T.iXuXt.~ t t % w $ $ < 8 r 0 4 9 d 2 ",
"C U T 6X9XJ.l.T.q.-.F P V G t _.e.! sXsXX.q.i.d.aXgXhXhXfXhXrX-.R R w @ + / 8 9 g 9 g h #.#.h d ",
"q % H U.K.J R.6X<.=.j.E.N.c.] ..H ! ! jX8.R _ _ ,.9.i.g.jXrXj ~ e @ @ M C ,.* 9 g h g d d g 5 g ",
"g v o.J.T J.qX0X1.v z.D.B.C.J.,.U P F 4X0.b G G u ^  .<.q.<.e % o M M M N ,.0 9 g a g 4 g d d 4 ",
"d ` R.(.6X0XzX0X<.%.n.Y.c.P.tX_.tX` J._.0.k.V.k.k.l.F G t e % M M N N N n / w 9 , 2 d d d g d d ",
"< Y U.A.7XzXzX9X<.=.z.F.c.~.rX).tXtXpXjXgX~.V.S.S.Q.W.S._ q % C M N N N N Q w ; : , d d a d 5 d ",
"].k.Q.W.`.7XqX6X;.s j.Z.m.N.y.d.).).s.tXs.;.l.V.F.$X$XW.q.-.@ C M C N N m W r 9 f ; 9 , ; 2 a f ",
"-X|.!.S.!.6X7X/.s.v k.c.c.c.L.q.s u.rXrX-.U l.S.Y.@X$X!.y.-.o C N N N N n W W t g 2 x x f d d d ",
"=X>X$XwX*XY.(.rXi.-.e.0.L.b.9.s.. u.aXrX-.j.Z.x.A.Q.$XF.5.-.% N M N N M R ~ / W 0 4 x g d 4 4 d ",
"@X&XQ.T.I.U ( 6.v r ) 5.t.t.y.y.6.s.tXrX*.j.Z.b.Y.$XQ.A.<.c # N M M G ~ k % Q t 0 d 2 f d 4 a 5 ",
"j O.} d g 3 s v l 8 * r i i ;.y.s.s.i.=.j T Z.c.E.Q.Q.F.3.k o m M W c 8 $ 7 j f 4 a 2 a 4 4 5 a ",
"4 3 3 f a : : , , 4 2 ; 7 8 8 ( y.2.j w ( t.a.w.K.Y.E.C.,.c # G W u % $ < 2 2 4 2 2 9 2 2 a 2 2 ",
"f d f a 2 f f 2 d a 2 d h a d x 1 1 8 y k p >.4.t.f.a.0.,.u $ u <   : 3 x a f &.9 2 x z 4 :.z 4 ",
"g z z #.f g d f d 2 2 4 a a f d 2 4 4 1 0 0 w y i c 6.f.p.<.E = ' [ I.| 4 4 f 4 2 4 2 2 4 2 a d ",
"f d g d 5 4 a a a 4 4 4 4 4 g d 2 4 4 2 4 4 , 9 0 0 -.i.f.s.u $ @.>X*XB.2 4 l d 2 2 4 2 4 4 2 d ",
"d 4 a a d 4 2 9 a , 2 , 2 2 9 2 2 1 - 2 4 2 1 5 5 4 9 s v O.] Q > 8 7 > > 2 1 2 2 2 ; 2 2 2 1 4 ",
"4 2 f a a d 9 x g d a 2 9 9 9 a 9 ; 1 a 2 f a 2 9 2 p ` [.wX:X$X/ 4 { [ ' a 9 f 2 1 1 4 a f 9 1 ",
"z g z 4 g g d g d 4 g d d g x #.z 4 f z f z h a g g U. X@X!.Y.J.s { +X+XW.f x x z a f z z z z 4 ",
"d d f 4 4 d d d a g d 4 d d g g z f d z d d g d d g ~ Y G < a 5 5 s O.T u d g f z f f g g d d f ",
"d z g 4 d d a g 5 d a 4 4 g g g z d a d d z d a g z 6 6 5 g d g a g 3 3 3 g g z z d 4 d d z d a "
};
