/* XPM */
static char *result[] = {
/* columns rows colors chars-per-pixel */
"48 48 149 2 ",
"   c #0E141F",
".  c #17181E",
"X  c #111722",
"o  c #161C26",
"O  c #1A1E25",
"+  c #151E29",
"@  c #191F29",
"#  c #1D2227",
"$  c #1C232C",
"%  c #1F282D",
"&  c #162531",
"*  c #1E2631",
"=  c #1E2833",
"-  c #21252D",
";  c #212731",
":  c #232A35",
">  c #282E37",
",  c #262D39",
"<  c #292E39",
"1  c #27303B",
"2  c #2A313C",
"3  c #333038",
"4  c #3A343D",
"5  c #262B44",
"6  c #2C2E44",
"7  c #272A4F",
"8  c #2C2E4B",
"9  c #312F46",
"0  c #332F4D",
"q  c #2E3542",
"w  c #2F3844",
"e  c #2F304B",
"r  c #323543",
"t  c #393642",
"y  c #323944",
"u  c #33324C",
"i  c #3B374C",
"p  c #363F4B",
"a  c #2D2E51",
"s  c #312858",
"d  c #363552",
"f  c #383553",
"g  c #373952",
"h  c #33325C",
"j  c #3C355C",
"k  c #3E395C",
"l  c #2D2562",
"z  c #2E2C62",
"x  c #2D2C6A",
"c  c #353164",
"v  c #3C3764",
"b  c #3E3B62",
"n  c #36326B",
"m  c #3C356C",
"M  c #3C396A",
"N  c #3E3770",
"B  c #3F3871",
"V  c #433C46",
"C  c #423B63",
"Z  c #43376B",
"A  c #443C6B",
"S  c #4A3E6C",
"D  c #443B74",
"F  c #4A3E74",
"G  c #483D7B",
"H  c #38414E",
"J  c #47404D",
"K  c #4C424D",
"L  c #51434F",
"P  c #4F4551",
"I  c #524554",
"U  c #574956",
"Y  c #5E4D5B",
"T  c #614D5B",
"R  c #60505D",
"E  c #6E515F",
"W  c #494265",
"Q  c #4C426A",
"!  c #524261",
"~  c #54516D",
"^  c #4D4176",
"/  c #4E417A",
"(  c #514377",
")  c #584677",
"_  c #544B76",
"`  c #524479",
"'  c #5C4A7A",
"]  c #6C5462",
"[  c #715664",
"{  c #775865",
"}  c #7D5C68",
"|  c #634E76",
" . c #634E7B",
".. c #66507C",
"X. c #6A527D",
"o. c #765973",
"O. c #7C5C7B",
"+. c #7E606F",
"@. c #83626C",
"#. c #88646F",
"$. c #866372",
"%. c #8C6774",
"&. c #8B6679",
"*. c #916978",
"=. c #A2737D",
"-. c #554685",
";. c #5A4981",
":. c #594889",
">. c #685082",
",. c #685D8A",
"<. c #715682",
"1. c #775D81",
"2. c #7D5D81",
"3. c #675293",
"4. c #6B5594",
"5. c #6F5798",
"6. c #6F589B",
"7. c #7B5E97",
"8. c #735A9D",
"9. c #746C95",
"0. c #7C749C",
"q. c #765CA2",
"w. c #795EA3",
"e. c #846183",
"r. c #8F6884",
"t. c #936A85",
"y. c #9A6E86",
"u. c #9C6F89",
"i. c #9E7087",
"p. c #9D708A",
"a. c #A57589",
"s. c #A9778A",
"d. c #AD7A8B",
"f. c #B27D8C",
"g. c #B77F91",
"h. c #94989D",
"j. c #B9818D",
"k. c #BC8292",
"l. c #8F89A4",
"z. c #8D85A9",
"x. c #9B9BB5",
"c. c #9DA0A4",
"v. c #A8A3BC",
"b. c #C48694",
"n. c #B0AAC2",
"m. c #B8B3C8",
"M. c #C3C5C8",
"N. c #D3CDDE",
"B. c #FDFEFE",
/* pixels */
": : > = : 2 , : > < * : , < ; - ; $ - > : : : - : : , : ; q : : : < ; ; > < ; ; ; $ - , : ; : - ",
"2 > , , q < > > > 1 $ y 2 q ; ; ; ; > > < : : : : < , , q < > > 1 1 - y q q - ; ; ; , , < : : : ",
"< < , < , , , , , = < y : * ; > : = * : : : : ; : > < > , , , , > = 1 w : * ; > : * $ , , : : ; ",
"2 1 , = 1 1 < : > , ; 2 1 ; ; 1 : = * : : < : & < 2 , = 1 1 , : > : : 2 1 * ; 1 : : $ : : < : & ",
"$ ; : $ < : $ $ = * $ , * $ $ ; $ $ $ ; ; - , $ - ; : & < : $ $ ; ; $ > * $ $ ; $ $ $ ; - - : $ ",
"; < 1 , 1 > < - < < 2 2 : ; < ; > * < < 2 y > : - < < > 2 > < $ 1 1 2 2 , ; < * > ; < 1 2 y < : ",
"2 2 , , < > , ; < , 1 > < > , , < < > = : < , : > q > 1 < , > ; 1 > 1 1 < , , , 1 < > = > > , : ",
"> 2 , , , , $ , : = , : * * * : = * , = : : : = , 1 = , , , * > : * : : ; $ * = = ; , * : : = = ",
"> 1 , : , = * 2 > * : = ; $ * : @ $ : : : , : : : < , : : : * 1 > * : * * $ * * $ $ , : : > : ; ",
"; 1 ; - $ * # $ : * * * & @ @ @ @ @ : , = : : : ; 1 : ; - $ # - : $ * * * $ # $ o # ; ; * * : : ",
": 2 : u j j y 2 1 , , o $ ; : , : O $ $ o $ : < ; 2 ; . $ , : y 2 , < O # $ q b j k b h j b 6 : ",
"> 2 > 0 1.>.A C g ; ; - y = , > < $ 3 < : : : : > q > ; H , , > : , * $ k k A / / / / e.W f 6 : ",
", , , $ @.i.O.>.A u $ : y * : = : ; < > = * * = , > ; > , ; : * $ * u d ^ G ' &.2.2.e.[ : # * = ",
": ; ; , +.k.j.i. .F 6 $ , : , : : = * , : : * : : : : 2 : ; ; : e u A /  ...r.j.j.d.} , * : * : ",
": : ; : Y =.d.f.a...F 6 > : < : : ; $ : = * = = = : ; 1 1 * : d ^ ^ ....i.j.f.f.s.] $ ; : * = : ",
"* : * > & E k.d.f.a. .^ : @ - - $ @ - $ @ ; $ $ * : * ; * o 6 ^ ^  .a.j.f.d.f.d.{ # - - $ ; @ @ ",
": ; : , @ [ f.f.f.f.a.F 9 : : y - @ 2 > : H < ; : : > : # e ^ ^ ' d.d.d.g.d.f.O.: - 2 > : H < - ",
"1 > 2 1 > : T f.f.f.s.) ( < : : $ * * # * $ ; > > , 1 2 d ` ` ' a.f.d.d.s.f.e.( ( W ; @ * $ : : ",
"> > : , : $ T k.f.d.f.p.' , : : $ = * $ * ; $ : , > * u ^ ^ ..s.f.f.X.` _ ` 2.s.d.&.: @ ; * $ : ",
": * : * d M Q ' O.f.f.d.' Z < $ $ # o $ $ $ $ : : $ d ^ ` ^ / .. ...^ e.u.u.[ t V 4 o $ $ $ @ = ",
"* & : : > o.p.t.e. .X.X.` / Q 9 $ O $ ; - : - $ ; * < A /  .p.y.r.t.t.d.j.@.2 $ @ o - ; ; : ; # ",
"> > < : * i %.b.a.e.2.D ^ ^ b q > * > < > 2 1 ; > < > , b ' 2.e.j.j.j.d.j.Y $ w < - : < > < > ; ",
"= , : ; : = t %.g.g.f.e.e.^ 5 : 1 : : > : , = : : , : # : b D ^ 2.j.j.d.d.*.J , < < : > , , , : ",
", > : ; * , # 4 $.d.d.f.t.;.h < 1 , ; : , > , ; : 5 a f q 6 ` ^ D e.e.s.k.b.[ & q : - : : > , * ",
": : , ; : 2 2 ; J f.f.d.) 4.:.h : $ - : , : ; - 5 z / ` f i ^ ` X.^ B 2.r.s.#.4 $ $ - : , : ; $ ",
"1 > 1 , 2 2 1 = I f.f.t.' 3.q.-.5 - : , > : ; 5 c ^ 5.W : g ^ ' s.X.....' 2.a.o.5 ; > > > ; : : ",
"< 1 1 > , > , * K f.y.' ' 5.8.-.a : * : ; > q z ^ 4.w.Q % u ^ _ s.j.f.j.k.O.M D C * * : ; < , * ",
"5 2 , * 2 1 2 = I u. .s.d.7.6.8.G 7 * , : < c F 4.8.q.W : g ^ ' s.f.d.f.j.Y * < > ; * : : > > $ ",
"* ; : $ > : # 6 F  .s.f.f.X.3.-.n m n c c n ` 4.6.q.Q # i ^  .a.d.j.d.d.L $ $ : $ $ $ * $ - : $ ",
"- < 1 , 1 > > $ I s.f.f.f.s.( D G F G ( ^ ^ ` 5.8.q.W u ^ ^ ^ ..s.j.d.R : - < ; > - < < 6 q 2 : ",
"1 2 < 1 < , , * y J U f.f.f. .F ` ( ( ` ` ` / ' 6.-.c A / ' u.t.X.>.a.P : > , : < < > = , , : = ",
"1 2 = , , , * > = $ : K K =.<.D ^ ( ( ( D F / ^ ;.N N D  .s.=.I e 6  .i $ = * = : : : = : , : : ",
"> < : , : : * < > : : $ $ K S z.9.Z F ,.n.v.D ^ / M N 1.&.X.! : = % e , - * * = $ $ : : , : : : ",
": > ; ; * * @ $ : $ * * & @ s N.x.l F r.B.B.N F ^ n n X.| x z 8 a * $ * & @ @ @ @ @ : : = : = : ",
"- 1 : . $ < : w 2 : , O $ : 0 l.0.m ^ ,.m.n.N ^ m n n x x n h M c : , o $ ; : , : O - $ @ - ; : ",
"1 q > - p , > > , , * - y : ; 8 A ^ ` ` n D / ^ m n c h v a * : : , * - y = , > > $ 2 < > : : : ",
", , : > 1 * : = ; : * : y $ > $ ~ ,.b _ 9.A b c z c 6 , , * : = : * * : q * : = * * q : : * ; : ",
": : ; 2 > ; = : : * ; - , ; 1 + h.c.  ~ M.> * : : : ; 2 > ; = = : * ; ; > ; > : : : - : : * * = ",
": : * > 1 = : = = * $ ; , , , = 2 2 $ 1 q * * : = : * > > = = , = * * $ > , : : : * - ; : * : = ",
"- : $ , * X o $ @ * $ O - $ $ * # O - $ @ $ $ # * : * : * X @ @ $ % $ $ $ $ $ ; $ @ $ ; @ ; @ @ ",
": ; : : @ < > O : ; $ : > : : r * # 2 , : H < ; : : : : @ < > $ : $ $ : > : : y ; @ 2 > : H < * ",
"< > 2 2 < : : < , $ * * ; * > ; $ * * $ * $ * , > , 2 q < : : : : $ * $ ; - > ; $ ; = + * $ : : ",
"> > : , : : ; : ; * * * $ ; > : $ * * $ * = $ , : > : : : ; : : : ; * * $ ; > : $ * * $ * ; $ : ",
"= = * : : * - $ ; @ @ @ $ $ $ $ $ # O $ $ $ # = : * * : : ; - - : @ @ @ $ * $ $ $ @ O # $ $ @ ; ",
"; & : : ; : - < < : ; @ - ; - : * O - - - : - $ - * : ; ; : - 2 < : ; @ * - - : - O $ * ; : ; $ ",
"< < < ; : , , , : : : : : > 2 2 , * : < > 1 > : > > 1 : = , : : : : : : = > 2 q 1 - > < > < > - ",
"= , : ; = : : : = : = = = , : > < , : > , , : : = , , * : : : : * : : * , = , > 1 , : > , , : , ",
": < : : : : ; , : : : = = , < < < , ; : = > , * , > > * , : : : = : : * = , , > 2 : * : = > > ; "
};
