/* XPM */
static char *result[] = {
/* columns rows colors chars-per-pixel */
"48 48 101 2 ",
"   c #17181E",
".  c #111722",
"X  c #151C26",
"o  c #1A1E25",
"O  c #171F2A",
"+  c #1A1F29",
"@  c #1B2126",
"#  c #1D232C",
"$  c #1E292F",
"%  c #1E2631",
"&  c #1F2832",
"*  c #21252D",
"=  c #23292F",
"-  c #212731",
";  c #232A35",
":  c #282E37",
">  c #21253B",
",  c #262E39",
"<  c #292E3A",
"1  c #27303B",
"2  c #2A313C",
"3  c #252642",
"4  c #2A2745",
"5  c #272A42",
"6  c #2C2E44",
"7  c #2D274B",
"8  c #272B49",
"9  c #2B2C4A",
"0  c #322F4C",
"q  c #2D3442",
"w  c #2F3844",
"e  c #2D314D",
"r  c #303643",
"t  c #323944",
"y  c #33324D",
"u  c #373F4B",
"i  c #2D2D53",
"p  c #2E2E5B",
"a  c #302E5D",
"s  c #2F3051",
"d  c #353453",
"f  c #393554",
"g  c #3C3B55",
"h  c #3B375B",
"j  c #3E3A5B",
"k  c #322D63",
"l  c #352D68",
"z  c #3D2F69",
"x  c #353362",
"c  c #3F3860",
"v  c #35316B",
"b  c #3C356D",
"n  c #3F386E",
"m  c #3D3671",
"M  c #3E3872",
"N  c #413C5D",
"B  c #423B63",
"V  c #43356F",
"C  c #463D6A",
"Z  c #493F6E",
"A  c #443A72",
"S  c #493F73",
"D  c #38414E",
"F  c #4B4E59",
"G  c #4C515B",
"H  c #464063",
"J  c #47406B",
"K  c #4C436B",
"L  c #4E4275",
"P  c #4F4378",
"I  c #504377",
"U  c #514379",
"Y  c #5C4D7E",
"T  c #565370",
"R  c #4C4081",
"E  c #554682",
"W  c #5B4A87",
"Q  c #5C4A8C",
"!  c #5C5384",
"~  c #614E87",
"^  c #624F89",
"/  c #67538D",
"(  c #614D92",
")  c #6B5594",
"_  c #6E5799",
"`  c #745B9E",
"'  c #706C95",
"]  c #7B759B",
"[  c #775CA2",
"{  c #785DA3",
"}  c #979C9F",
"|  c #8B82A5",
" . c #9C94B1",
".. c #9E98B3",
"X. c #A19CB6",
"o. c #9DA2A5",
"O. c #BEBCCE",
"+. c #C9C5D5",
"@. c #DBDBE4",
"#. c #EAE9EF",
"$. c white",
/* pixels */
"; ; , - ; 2 ; : , < % - : : - * - # * : : - - - ; ; ; - ; 2 : : ; < $ - : < - * - @ - : : & - % ",
"2 : , , 2 q : ; < 1 * t q q - & - ; ; : < - ; ; : : , , 2 2 , : , 1 * t 2 q - % - - : : < - ; ; ",
"< < , < , : , , , & 1 w ; % - : & & % ; ; : ; % & 1 1 1 , 1 ; , , ; 2 w : % ; , & & % ; & < ; % ",
"2 1 , & 1 1 1 ; : ; ; : 1 & - : , & % ; ; : ; % < 5 , & 1 1 1 ; , , - 2 : & - : ; ; % & ; : ; % ",
"% & & % < ; # % & - # : % # % ; # % # - - * ; % % - ; # : - $ $ & - # : # # % ; % % # - - * , # ",
"= < < : 1 : < # : 1 2 q ; * < - , # < < 2 r < ; * < 1 , 1 < : # : 1 2 2 : - < - , # < < 2 t < ; ",
"< 2 < 1 < : : - 1 < 1 , < : ; , : < , & , : ; ; : 2 , < < : ; - 1 : 5 < : : ; , < : , - , : ; & ",
"< 2 & , , : % ; ; & ; ; % % % - & - , & ; ; ; & : 2 , ; < ; - : , & & & % & % ; & % , - ; ; ; & ",
": 1 ; ; ; ; % < : & ; & % % % & # * ; ; ; ; ; ; ; 1 ; : ; ; % < : & - & % % - - O * ; ; ; , ; & ",
"- < ; - % % + # ; # % % % # O O X + ; ; & ; & ; - 1 - - % % @ # ; * & % % O O + O # - ; & & ; ; ",
"= < - o # < ; t 2 ; , X # - ; ; ; o # + O # - < ; 2 ;   # : ; t 2 ; : X O - ; ; ; o * + + # - : ",
"< q : * u , , , , : - * t & , < : * q < : ; ; : : 2 : = u , , : , ; - - t ; , , < * q < ; ; ; : ",
": , ; : : & ; & - & % - r % ; & & - q ; ; & % & ; : ; < : & & & > ; $ ; w & ; ; % - 2 : & & & - ",
"& ; - 2 : & & ; ; & % - : - : ; ; - % ; - - & > ; : - 2 : & & ; ; - % # , & ; ; ; - % ; ; & & > ",
"; ; % : < & & ; & % % - , , , % 8 i # ; & % & ; ; & % y c & ; ; - - % - , ; : ; - - # ; & % - - ",
"% ; % ; % . O O # % # + # # * o N Q i - % - O O & ; 8 M c . O O # # # + # # # * # @ # - # - @ # ",
"; - : ; # : : @ ; # # - : ; : 2 B ( a : - D < - ; ; 9 R I ; : @ ; # # - < - ; t * # 1 : ; D < - ",
"< , 2 q : : ; : ; % % % - - ; g ^ _ U 8 % $ - : : 9 x W Y = : : ; % - % - - : - # % % @ % # - ; ",
": , ; ; & & - ; - & % # $ - - K [ ` _ k % % # ; 9 b E ) / B ; - - % % % % % : ; # % & # - % $ - ",
"& % & ; - & # # - + # + # # o K [ [ ) p # # @ = i A ~ ` { ) = @ ; + + O # % # # # @ X # # # + & ",
"- # ; ; - : # 2 < ; - # % - * g / _ E a 3 5 3 3 x U / { _ K * 2 : ; % # * * = ; % o # - * ; - # ",
"< < : & ; , ; : ; ; ; - & < 2 ; j E v m M M m m S ) { ) H $ ; : ; ; ; & - 1 1 5 : * : , : 2 : - ",
"& , , % ; ; - , ; ; ; & ; , ; : s A P P P P P P S ^ _ L - 5 < - % ; ; & ; ; , , < : ; : ; , ; ; ",
"; < ; & ; - - ; & ; > - & & 6 < h U P P P U U I P U A v v n Z q < 5 ; % % , : < 1 , % ; ; 1 , % ",
"; ; : & ; 2 : : ; < % ; ; ; j n b U P U U U S P P U A v n P P Z J L < ; ; < - - - # * ; : ; - % ",
"1 < 1 , 2 q , ; : : * t q N U A l | O.b U U +.#.' b S l v b n P U U Z g 2 r - - - % : : : - ; ; ",
"< 1 1 : , , , , : ; < Z C P A v k  .@.l P U #.$.] v S v v v v I L U U P y $ - : ; % % ; - < : % ",
"5 1 1 & 1 1 1 ; < ; ; S U U n v l ! ] S P P ] | ! S A v v v v V P U U U K 9 @ : ; ; % ; ; : ; # ",
"& - & % : ; $ # - : f S I U M v p > 7 V U U z V P A v v v 5 3 8 L U P P U C j d # O # - % * ; # ",
"* < < , 1 : < # ; q I U I U m p y o F ..c D X.T d d s s e : : * J U U U U U E B : $ < < q w 1 ; ",
"1 2 , < < : , * q f L U U U A s : ; G } , 1 o.D % 2 , , , < , - j L U P U U U c , < < - ; , ; & ",
"< 2 , ; < ; - ; 6 I P U I I U d $ ; - O ; ; $ % : 2 ; , , ; $ : - C U U U U P C 9 - : - , ; ; % ",
": 1 : ; ; ; % < q S I U P P U h - % , , ; ; , - , : ; ; ; ; % 1 : C U U U U I U Z * : > : , - ; ",
"- < ; % # $ @ # y U U P I U U P 0 X - ; & ; ; ; - < ; & - $ @ # ; C U U I U U U S - - - - ; ; ; ",
"- 1 -   * : ; g I I U U I I P d ; o # # + # - : ; < ; . @ 1 ; e q Z U U I U I U U Z : * + # - ; ",
"< q : = D ; y U U U U P U U d ; < * 2 < , - ; : : q : = D ; : 6 C P P U U I U U S U S Z r - ; , ",
": : - < ; y P I U U U U U d ; - & - 2 : > & & & ; : ; : : & ; & 6 < C U P P U I U U U U S 5 * - ",
", c Z Z C J U U I I U U y ; ; , ; - - ; ; & & & ; , - 2 : - & ; - % , B U I I I U U U U U Z 9 % ",
"; e y J E U U U U I 0 6 , ; , ; - - # ; & % & ; - ; & : < & & ; ; & # 5 d B U U U U U U P U K 6 ",
"% % @ 6 y 4 0 0 0 0 # o * # # $ # + * # # - # @ % ; % ; % . O O # # # + + ; 0 f f U U U U P U C ",
": - : - o - ; o - # # - < ; ; t % + 2 , ; D < - ; - : ; # : : + ; $ # - < * = q - 0 h f f S U U ",
": 1 1 q : : ; : ; $ % % - - : - # & % # % # - , 1 , 2 2 ; < ; : ; # % % - - : - # # # O $ d B c ",
", , ; ; ; & - ; - % % % % % : ; # % % # % % $ ; : ; ; , ; - - ; - % % % % % : ; # & & # % % # % ",
"& % % ; ; & # * - + @ O # * + * # @ o # # # + - ; & - - ; - # * - + @ + # % # # # @ O # # # # - ",
"% $ ; - & , # < : ; - # * # * ; % o * - - ; * # * $ - ; > : $ 2 < ; - # & - * ; * + # & * ; * # ",
"1 : < - , , ; , ; ; ; > ; : 2 2 , % ; : : < : ; : , 1 - & < ; ; ; ; ; - & , < q : * : < , < : - ",
"& , : & & ; ; ; & ; & & ; ; , : < : ; , ; , ; , & , : % & ; ; ; ; ; ; & ; ; , , : : ; < ; , ; ; ",
"; < ; & ; ; - < & ; ; & & ; , < < , - ; & : ; ; ; : , & ; ; - , ; > & & & , , < 1 ; - ; & : : ; "
};
