/* XPM */
static char *eba28b0b77d6435bf7299f3a163209d9jJo9n5XKkTEVtedc[] = {
/* columns rows colors chars-per-pixel */
"48 48 54 1 ",
"  c #17181E",
". c #111722",
"X c #161C27",
"o c #1A1D25",
"O c #191F29",
"+ c #1D222C",
"@ c #1E2631",
"# c #1F2833",
"$ c #21252D",
"% c #212731",
"& c #242831",
"* c #242932",
"= c #252932",
"- c #242933",
"; c #242A33",
": c #262A32",
"> c #202834",
", c #212935",
"< c #232934",
"1 c #232B37",
"2 c #252A34",
"3 c #262B34",
"4 c #232C36",
"5 c #252C37",
"6 c #292E37",
"7 c #242D39",
"8 c #252E38",
"9 c #262E38",
"0 c #262F3B",
"q c #292E38",
"w c #2A2F38",
"e c #2A2F39",
"r c #282F3C",
"t c #27303B",
"y c #27303C",
"u c #29303B",
"i c #2B303A",
"p c #28313C",
"a c #29313C",
"s c #2B323C",
"d c #2C323C",
"f c #2C333E",
"g c #2D333E",
"h c #2B343F",
"j c #2D3540",
"k c #2D3541",
"l c #2F3844",
"z c #303742",
"x c #313843",
"c c #323944",
"v c #333944",
"b c #323A46",
"n c #363F4B",
"m c #38414D",
/* pixels */
"2<<<2f297q$<5q>$*+$59<<+2*9@2f29<9$<5q*$<+$29<+$",
"a9y7kr929y$chk+<<@559<<<9999ka99rr$ckk$>%<559<2<",
"r99999999<ul<+<75++5#q9@<y9999299<al4@>54@+5<97@",
"aa9<ryr19<<ut<<944+5<q4+yy9<ayr1y<<qt@*544+4157+",
"%%<+q<+@<$+5++$<+++>%$9+%%<+q<+@<%+9@+$<+++%%$2+",
"$qy9qqq+qaak5*9@t$q9fxy1$qr9q9q+qyuf2$q#*%q9fla2",
"uk9yr9<<y9tyr597t67<59<#qa9r992>a9yrq944tq9<59<#",
"6a<999@24@<<@@@##%*<<2#<5a9799@24##<@@##<%7@<9#<",
"5u9<44+u5<<@@@@#++<<11<#2u7<7<@a9#>>+#+#++5<445>",
"%q<@@+++<+@@+++XX+<2<1#<*q<%@+o$>@@@++++X+**>#4:",
"*u< +62bh47o+><<<o$+o+<q*u* $9*cu56o+$<5*o$oo+%5",
"9kq$m97y442+b#9yy+qr9<199k9$n9799<>$l>5tu+hu5>55",
"59*9u@@@<@+7k@<#+@j<##@#99<q9@<@>>#>x+5>#+h5#@@>",
"<<>f4<<#<@<+9<9<9<+7<#@1##<a9#<#>#%$9>455>$<4>>>",
"##<qt@<<#<@+9<9<@$+4@@@<1#%q9@#7<#+$955<@>+4%+#>",
"><+5@.X+++++++$$++$$++++%7@2@.X++++++++$++$$+>++",
"225*+q2+2++<q*2c++a9:mu%:*5*+66+1++-22-c%+r95m6+",
"t9uh5922<@+@<%9%+@@+>+>599uh5545<+,@,%5<+@@+@+**",
"55444@*2#@+@+@22++@+>++*5:44:%>*<@#++@2<++@+@@+$",
"<@@<<@$+@++O+@$+++X++++>>>#4>%++%O+X+@++++X++++>",
"%+5*%2+f92%+%$$2@o+>$*$+%+:*>5+d92%+$$$@@ +%$5$+",
"y5u><555<1#<#9ak9@5u5u9*ttt>:4:51#<1<9ak9%5t5u6>",
"455+<,2#<1<#1<799525554:*44##*55<1<%<799f92y5443",
"455>,,,<<,,%@#9rf4>*5u5%4t4$>>4:#1##%<9ta*@**u5>",
">*5<>h*64q+*9q<+$+$25*<+>*9<>u55<q@*2a<+$+$<5*<$",
"u9t9hh999y%ckk$<<<59q><<5699ukt59y$ckk$<<<996#<<",
"utt999779<ul<+<9<@@4259@4tt999999<al<@<5<@+9<55@",
"ay5<uay294<u9<<94<+4557+ty5<usu>91<qt@<57#@<<69+",
"%%2+6<+@<$+5++%<+++@$$5+$2<+6>+#<$+9+++<+++%>$5+",
"$qr9q9q$qafa5*5<5$qujlr2$9rqu96$qyfa2<q%4$qaaku*",
"qkyyt97@a9y9u99#9q9#19<<9f99tt>*y9y9a9919q9<79<7",
"6a<99*>27@#<@@@<<%9@<7#<9q779*#:7#<<@@@<#%9@<7##",
"2u9244@a5+<#+@@@++4:454<5u544<+u5>#4@+@#++2<97<#",
"<9<%@+++5+@+++++X+%>#<<<>5>%#+++5++++++OXO*<###1",
"*u< +q<bh55o+@#7*+++o+>6:i* +6>xh99o+@5<<X++o+%q",
"qk9+m94y49<$c<779$ut4<:5uh5$m59t44<$c<y9r+hu9<29",
"99<9y@@@@<+2k@7<@>d94@+>55<5t#<#<@+<l##<@+a9<@@<",
"<<<a4<<#<@<%9<7#*%@::>>*<4<u5>##<@<+9<t<<<%9<@@<",
"<1<qt@<<##++999<%%+>#+@><4<ut>>:#<@+9<9<@<+<@@@#",
"@#+2@.X+++++$++++++#+#+++4+*@.X++++++++$++$++@++",
"*<2*+q2+5++<q<%c++a9:mu%*>52+6*+2++<5**c++a92my@",
"y9aj99<5<@@#@<5%++#+#+@tu9uh59554+@@>>6#++++@+2>",
"92444@2<<#+++<q2++++@@+>5544<<<<<@++$#6<+#@+@@+<",
"<@@<<%$+<O+X+++++++++++><@@<<++$>X+++++$++X++++@",
"@+22+9+qq2,++$$2$o$%$5$+>+::<5+uq2>++%$:$o+$@5$+",
"y9y<1r29<2##<y9jt%:95u5:t5u#<929<4#<<5us5%5u5a6%",
"<94+<122#11@<199t5:5555>>45@<#>#<1<@>999u6*u44*:",
"799<#<<11##@#9r9t>45>u4*5t5><<27##<@#999t5%>4t54"
};
