/* XPM */
static char *result[] = {
/* columns rows colors chars-per-pixel */
"48 48 203 2 ",
"   c #2F091D",
".  c #360E1F",
"X  c #0E1724",
"o  c #131B26",
"O  c #1B1D24",
"+  c #151E2A",
"@  c #191F29",
"#  c #380E21",
"$  c #2B1C2C",
"%  c #3B1523",
"&  c #381324",
"*  c #3B1827",
"=  c #341C29",
"-  c #2E1D31",
";  c #3C1A31",
":  c #16212C",
">  c #1C222C",
",  c #1D2632",
"<  c #1E2935",
"1  c #1D2A38",
"2  c #21252D",
"3  c #2D232D",
"4  c #2A282F",
"5  c #33232D",
"6  c #3B222E",
"7  c #212731",
"8  c #2A2632",
"9  c #232A35",
"0  c #2A2C36",
"q  c #252E39",
"w  c #292E39",
"e  c #332C36",
"r  c #392836",
"t  c #332D3A",
"y  c #27303C",
"u  c #2A313C",
"i  c #353237",
"p  c #3E3236",
"a  c #343339",
"s  c #3C333A",
"d  c #3D393D",
"f  c #420C24",
"g  c #4F0D2C",
"h  c #5A072B",
"j  c #411927",
"k  c #451E2B",
"l  c #481E2A",
"z  c #53102D",
"x  c #5C0F32",
"c  c #431C33",
"v  c #481D33",
"b  c #561533",
"n  c #5D1334",
"m  c #621335",
"M  c #651B38",
"N  c #7F1D38",
"B  c #46202D",
"V  c #49212E",
"C  c #412633",
"Z  c #462534",
"A  c #422B37",
"S  c #4C2A33",
"D  c #452A39",
"F  c #4C2F3B",
"G  c #522439",
"H  c #532E3D",
"J  c #423439",
"K  c #47363B",
"L  c #4F343D",
"P  c #4C3D3C",
"I  c #55373B",
"U  c #55313E",
"Y  c #5A343E",
"T  c #5D3A3E",
"R  c #682A3D",
"E  c #66363D",
"W  c #59433D",
"Q  c #70483D",
"!  c #2D3541",
"~  c #2F3844",
"^  c #313742",
"/  c #333945",
"(  c #423E42",
")  c #4B3B42",
"_  c #553140",
"`  c #593140",
"'  c #573B41",
"]  c #682845",
"[  c #683C42",
"{  c #723B43",
"}  c #6C3651",
"|  c #38414E",
" . c #4F4A4B",
".. c #544342",
"X. c #5A4644",
"o. c #5B4946",
"O. c #594B4A",
"+. c #5C5655",
"@. c #664845",
"#. c #754244",
"$. c #7A4945",
"%. c #6B514B",
"&. c #72544D",
"*. c #795748",
"=. c #7D534D",
"-. c #76415A",
";. c #615B5B",
":. c #795A51",
">. c #665F60",
",. c #716966",
"<. c #931F2E",
"1. c #821F37",
"2. c #831F39",
"3. c #961F31",
"4. c #8D2737",
"5. c #9A2835",
"6. c #9A2A37",
"7. c #9D2A39",
"8. c #A4232F",
"9. c #A42433",
"0. c #A52936",
"q. c #A42D3A",
"w. c #AA2D3A",
"e. c #AC313D",
"r. c #A63C49",
"t. c #AB3E4B",
"y. c #864843",
"u. c #884C45",
"i. c #834E4A",
"p. c #81554E",
"a. c #8D534B",
"s. c #8B594E",
"d. c #91534B",
"f. c #8B5951",
"g. c #AA404C",
"h. c #89655B",
"j. c #936356",
"k. c #9D6354",
"l. c #986558",
"z. c #A46A58",
"x. c #AA6D5A",
"c. c #AD735D",
"v. c #B2755F",
"b. c #B6785F",
"n. c #AE5762",
"m. c #B45C66",
"M. c #B65D68",
"N. c #866760",
"B. c #886B61",
"V. c #8C7B6C",
"C. c #94756B",
"Z. c #97776A",
"A. c #9F7471",
"S. c #A67563",
"D. c #B47660",
"F. c #B77860",
"G. c #BB7B61",
"H. c #BB746C",
"J. c #A27874",
"K. c #C27D65",
"L. c #CC7B73",
"P. c #978779",
"I. c #BE896F",
"U. c #A58776",
"Y. c #D48D5B",
"T. c #C38166",
"R. c #C58268",
"E. c #CA876B",
"W. c #D68B6D",
"Q. c #DA8E6F",
"!. c #DE9373",
"~. c #E19574",
"^. c #E59B78",
"/. c #A9A7B4",
"(. c #ABAAB6",
"). c #ADADB9",
"_. c #AEB0BB",
"`. c #CFA48C",
"'. c #DBB497",
"]. c #DEB99B",
"[. c #E6AD8B",
"{. c #ECB28E",
"}. c #EDB692",
"|. c #E7B698",
" X c #EFC29D",
".X c #EBC6A5",
"XX c #EDC9A9",
"oX c #F4CBA6",
"OX c #FDCDA7",
"+X c #FECEA9",
"@X c #F6D3AC",
"#X c #FED2AB",
"$X c #FFD9AF",
"%X c #FFD7B0",
"&X c #FFDBB1",
"*X c #FFE9BA",
"=X c #D3D6D6",
"-X c #D6D9DB",
";X c #DADDDE",
":X c #DBDEE0",
">X c #DCE4E4",
",X c #E0E7E6",
"<X c #E1EAEA",
/* pixels */
"9 9 q 7 9 a q 9 q w > 9 9 w 7 2 , > 2 w q 9 2 2 9 7 0 7 9 u q 0 q w 2 7 q w 7 2 7 > 2 q q 7 7 2 ",
"u q q q u u q q q q 2 / ! ^ 2 7 7 7 q q q 7 9 q q 0 q q u ! q q q y 2 / u ! 2 2 9 7 q q q 9 9 9 ",
"w q q q q q 9 q q 9 u / 9 , 9 q 9 , > q 9 w q , 9 y q q q q q q q 9 u ^ q , 7 q 9 7 > q 9 q q , ",
"u y q 9 u u q q q q 7 q q > > q < , > , < 9 9 > q q 1 , q y q 7 q 9 7 u q 7 7 u 9 9 > 7 9 q 9 > ",
", 2 9 > 0 7 > > 7 9 8 u i u a d a i t a i i a e a a a e d a a 7 7 7 > q 7 > > 7 > , > 7 7 2 9 > ",
"2 w u w u q w 2 9 ( =.$.j.v.c.c.c.c.c.c.c.c.c.c.v.c.c.x.c.c.v.P 9 u u u 9 7 w 7 q > 0 u u ~ u 9 ",
"u u q q u q q 7 q ) p.=.j.G.F.F.F.F.F.F.b.b.F.F.b.b.F.F.b.b.G. .9 q q q w q q q y w q 7 q q 9 9 ",
"0 u q 9 q q > 0 , ) i.&.j.D.c.D.D.c.D.c.v.v.v.v.v.b.v.v.v.v.D. .9 0 q 9 , , , 9 9 2 q , q 7 9 , ",
"q u 9 9 q 9 3 B 6 B V B E p.=.p.p.p.p.p.p.p.p.p.p.p.p.p.p.p.=.l.x.x.O., < , , 7 : 2 9 9 9 9 9 9 ",
"9 0 9 , > > = l k l B * T f.=.=.=.=.=.=.=.=.=.=.=.=.=.=.=.=.=.z.G.G.%.+ , @ > @ O > 7 9 < 9 < < ",
"2 u 7 O 2 q 5 k k B B * ' p.=.=.=.=.:.p.=.=.=.=.=.=.=.=.=.=.&.z.F.F.%.X > 2 9 9 9 O 2 : : 2 2 w ",
"u u q 5 C C B k B B B k T f.=.=.=.=.=.p.=.=.=.p.=.=.p.=.p.=.=.p.p.f...> ^ 9 q q q 2 u w 0 7 9 w ",
"9 q 9 6 l l k B B B B j [ p.=.=.p.=.=.=.=.p.=.=.=.=.=.=.=.=.=.=.=.p.K , / , 9 < 2 , u y < , 7 7 ",
"7 9 7 6 k B B B B k k j T =.$.=.=.=.=.=.=.&.$.=.=.=.=.=.$.=.$.=.*.p.P > w 7 q 9 9 7 2 9 9 2 9 < ",
"9 9 9 6 k k B k B B B * =.E.R.R.G.R.R.R.T.R.R.T.T.T.T.R...9 a a i 0 9 2 9 9 w 9 7 7 > 9 , , < 9 ",
", 9 , 5 B B B B B B V % a.^.!.!.!.!.!.!.!.!.!.!.!.!.!.~.) X o + > : > > > > > 2 > > > 2 > 2 > > ",
"9 7 0 6 k k B k B B V % s.~.W.W.Q.Q.W.W.W.W.W.Q.W.W.Q.Q.P , q > q 2 > 9 0 7 9 / 2 : u w 9 | w 2 ",
"u q u r k B B B B B V % h. X{.}.}.}.}.}.}.}.}.}.}.}.}.}.+., q 0 9 > > 7 9 7 q 2 > 7 2 : , > 7 9 ",
"q q 9 6 l Z B B B B V % Z.&X+X+X#X#X#X#X#X#X#X#X#X+X+X#X+.: 9 7 , , , , , , q 9 > > 2 : , 7 > 7 ",
"9 > < 6 l k B k B j 6   Z.*X$X$XOXOX+X+XOX+X+XOX+X%X%X&X+.+ 2 > 7 > + o + : 2 > > > > > > > > 7 ",
"7 > q 6 k k B B * E $.Q h.Z.C.U.#XOXOX+X+X#X+X+XoXU.Z.Z.( 9 2 u q , p Q @.K > 9 2 O > 2 2 9 , > ",
"w q y 6 l k B B * i.K.E.$.. . @.#XOXOX#X+X+X+X+XoXS . % 8 q 9 q q < o.K.T.:.q ! w 2 q y w u w 7 ",
"9 9 q 5 l l k l j Q b.b.#.# # @.@XOXOX+X+X+X+X+XoXV # * 8 9 9 9 9 : o.b.b.&.< q y 9 9 w 9 q 9 9 ",
"9 q q 3 5 5 6 V * u.E.T.S.N.h.U.+XOXOX+X+X+X+X+XoXC.B.B.a 7 7 9 9 , o.G.G.&.1 u y q 2 9 9 w 9 9 ",
"q 0 q 9 9 y r V % s.^.W.{.&X#X#XOXOXOX+X+XOX+X+XOX$X%X%X+.9 y q q , X.b.b.:.: 7 2 > 2 9 0 9 9 2 ",
"< , , q ! u 3 j . a.^.W.[.#XOXOX+X+X+X+X+X+X+XOXOXOXOXOX>.1 y 9 y < X.b.b.:.> 2 7 < w < q > , < ",
";.,.,./ 9 q S E Y k.~.W.[.#XOX+X+X#X+X+X+X#X+X+XOX+XOXOX+.< w q w < O.F.G.&.> y 9 7 > a d d d a ",
".X#X#X .9 y :.G.v.R.Q.W.[.#XOX+X+XOX+X+X+X+X+X#X+XOXOXOX;.< u 9 w , O.b.G.&., q 9 9 : *.Y.T.E.I.",
" X#XOX .9 < &.I.v.E.~.Q.{.%X#X#X#X#X#XOX#XOXOX+X+X#X#X#X;.: > > 7 : W G.I.*.: 9 > > : W *.*.*.%.",
"`.|.|. .9 9 %.z.k.v.R.K.`.].'.].'.'.|.XXXXXXXXXXXX'.'.'.+., u 2 u < o.x.z.@.7 9 w > w < 1 y 9 , ",
"4.q.7.J y w % f f f f f g n n n n x } (.(.(.(.(./.R x n t y q 7 w w 5 l l 5 q 9 w w w < q q 9 9 ",
"7.w.w.r < < & f f f f . g n x n n h } (./.(./././.] x n e < > q 9 , 3 j j 3 , 7 < 7 9 < 9 q 9 < ",
"4.7.6.r 7 7 * f f f f f z m m m R M -._._.).)._.).R n m r 9 8 t 0 9 5 S S e > < > > 9 9 q q 9 7 ",
"4 u 8 v n b n n n x n x N r.9.n.;X=X-X:X:X>X>X>X-Xg.5.q.6.5.5.6.7.<.H.XXoXV.X > o > 7 9 , 9 9 9 ",
"7 w < l m m m m m m m x 2.e.9.M.<X>X>X>X>X>X>X>X;Xt.0.w.w.w.w.w.r.9.L.%X&XU.> q 9 O 2 > @ > 7 q ",
"q ! w l n n n m m m n x 2.e.9.m.<X>X>X>X>X>X>X>X;Xt.0.w.0.7.q.0.9.3.H.@X#XP.: u w > u u 9 9 9 9 ",
"q q 9 0 w 9 c m n m m n 2.e.9.m.>X>X>X>X>X>X>X>X;Xt.0.w.D 0 0 0 8 8 r T T p , 9 , 7 u q 9 7 , 9 ",
"9 9 7 u q , c m m n m x 1.e.8.m.>X>X>X>X>X>X>X>X;Xt.0.w.r , < < < , $ j j 3 9 9 9 7 2 9 7 7 , 9 ",
"9 9 , 0 y , c m n m m n 2.e.8.m.<X,X,X,X>X<X,X,X>Xt.0.w.D < 9 9 7 < $ j l 5 q 9 < 9 > 7 , , 7 < ",
"> 9 7 9 , X $ ; ; ; c ; G ] R $.J.A.J.A.J.J.J.J.A.{ R E 5 X o > , + K k.k.W @ 2 > > 2 2 > 7 > > ",
"9 2 q 9 > 9 8 - - - - - r _ _ ` y.y.y.y.y.y.y.y.y.Y _ U 4 q 0 > q + X.G.I.=., / 2 @ u w 9 | u 2 ",
"u q u u q q - $ - - - - Z ` _ ` a.a.a.a.a.a.a.d.a.U H _ e q 9 0 9 + X.b.b.&., 7 > , > : > > 7 q ",
"q q y 9 9 , r Z D D D D r 0 t t p p J p J J E [ [ #.#.#.a , 2 9 7 : o.F.b.*., q > , > > , 7 > 7 ",
"9 > , 7 9 > A Y ` ` _ ` r : > > o O o : : @ A U H i.a.a.s > > 2 q X W G.b.&.o 2 > > @ > > > > 7 ",
"7 > 9 7 , 9 r H H H _ _ s 2 2 8 7 O 2 2 2 0 F U ` u.a.d.p 7 2 u 0 , X.b.G.&.: 9 2 > 2 2 2 9 2 > ",
"y y u 7 9 q P #.{ L e t w w y ! q 7 0 u q w F _ _ ) I U u y q q q , o.b.G.&.q u 9 2 9 y y u w 2 ",
"7 9 q > , < @.d.d.) , < 9 9 q q q q 9 q 9 9 F ` F q 1 : , 9 7 9 9 : o.F.G.&.< w w w 9 y 9 9 9 9 ",
"q u q 7 9 < T d.a.I , 7 < q q q u 9 7 9 9 q F _ H u q 9 9 9 9 q q < o.F.G.&.< y u 9 , 9 9 w q 9 "
};
