/* XPM */
static char *result[] = {
/* columns rows colors chars-per-pixel */
"48 48 202 2 ",
"   c #18181F",
".  c #35011D",
"X  c #3A021E",
"o  c #36101F",
"O  c #0D1927",
"+  c #111723",
"@  c #141B25",
"#  c #1A1D24",
"$  c #141E2A",
"%  c #1A1F29",
"&  c #2A1E2A",
"*  c #351224",
"=  c #3A1424",
"-  c #3E1827",
";  c #351F29",
":  c #3D1C2A",
">  c #2E1B30",
",  c #321E31",
"<  c #1C2027",
"1  c #16222E",
"2  c #1D232C",
"3  c #162532",
"4  c #1D2631",
"5  c #1C2934",
"6  c #1E2B39",
"7  c #22252E",
"8  c #2B222C",
"9  c #2D2A2F",
"0  c #37202A",
"q  c #3C212C",
"w  c #212731",
"e  c #2A2432",
"r  c #232A35",
"t  c #292C36",
"y  c #262D39",
"u  c #292E39",
"i  c #352630",
"p  c #3B2435",
"a  c #332C34",
"s  c #322E39",
"d  c #25303B",
"f  c #2B323C",
"g  c #37363B",
"h  c #32343C",
"j  c #3C363B",
"k  c #4A0125",
"l  c #420D25",
"z  c #4D0E2A",
"x  c #550226",
"c  c #55042B",
"v  c #441A29",
"b  c #441E2C",
"n  c #51132F",
"m  c #590C31",
"M  c #431B30",
"N  c #4B1A34",
"B  c #561634",
"V  c #5C1334",
"C  c #581735",
"Z  c #621335",
"A  c #7C1B34",
"S  c #46202D",
"D  c #49212D",
"F  c #442636",
"G  c #4B2A34",
"H  c #4E2F3B",
"J  c #582A35",
"K  c #522F3D",
"L  c #48373C",
"P  c #533337",
"I  c #55303E",
"U  c #5A323E",
"Y  c #5D393D",
"T  c #672835",
"R  c #752936",
"E  c #7B2738",
"W  c #613B3D",
"Q  c #76383B",
"!  c #68423F",
"~  c #7A443F",
"^  c #2D3540",
"/  c #323943",
"(  c #3C3C42",
")  c #383F4A",
"_  c #433D42",
"`  c #4C3D42",
"'  c #563140",
"]  c #5C3441",
"[  c #652C4B",
"{  c #6B3B46",
"}  c #39404A",
"|  c #4B4243",
" . c #454549",
".. c #554544",
"X. c #5D4543",
"o. c #524847",
"O. c #604545",
"+. c #664C47",
"@. c #694A45",
"#. c #644B49",
"$. c #6B4E4A",
"%. c #784643",
"&. c #7B4A46",
"*. c #7A4F4B",
"=. c #6C524C",
"-. c #72554B",
";. c #7D534D",
":. c #6E5751",
">. c #6F6560",
",. c #961F2F",
"<. c #841F35",
"1. c #A11F30",
"2. c #952937",
"3. c #9C333E",
"4. c #A3202E",
"5. c #A82635",
"6. c #A52A37",
"7. c #A52D3A",
"8. c #AC2D3A",
"9. c #AB323D",
"0. c #B3323D",
"q. c #8B3648",
"w. c #AC3B48",
"e. c #844A45",
"r. c #854D49",
"t. c #894E4A",
"y. c #82544D",
"u. c #8B514A",
"i. c #8D574B",
"p. c #92544B",
"a. c #885950",
"s. c #8C5B52",
"d. c #905E53",
"f. c #876356",
"g. c #986356",
"h. c #9B6758",
"j. c #A46B5A",
"k. c #A76D59",
"l. c #AD705C",
"z. c #B97A5F",
"x. c #8A6A62",
"c. c #976763",
"v. c #9B6563",
"b. c #906C6F",
"n. c #967768",
"m. c #B46D64",
"M. c #B77861",
"N. c #BB7A61",
"B. c #A87576",
"V. c #BA747B",
"C. c #C37B66",
"Z. c #9A8675",
"A. c #BE8871",
"S. c #D28959",
"D. c #C58364",
"F. c #CC876A",
"G. c #D48B6C",
"H. c #D58E70",
"J. c #D98F70",
"K. c #DA9474",
"L. c #D99577",
"P. c #E49875",
"I. c #E59A79",
"U. c #E7A07E",
"Y. c #967080",
"T. c #9E8492",
"R. c #A89382",
"E. c #BA9D86",
"W. c #A7A7B4",
"Q. c #A8A6B2",
"!. c #A5A9B9",
"~. c #C59E84",
"^. c #D69081",
"/. c #C9A68C",
"(. c #CFAF95",
"). c #E5AE8C",
"_. c #EBB590",
"`. c #CCB7AC",
"'. c #CCB9AD",
"]. c #ECC8A3",
"[. c #F2C5A3",
"{. c #F3CBA6",
"}. c #FBCDA6",
"|. c #F0CAA8",
" X c #FECEA8",
".X c #FFD0A5",
"XX c #FED3AB",
"oX c #FFD9AE",
"OX c #FFDBB2",
"+X c #FFE0B6",
"@X c #BEBDC4",
"#X c #BFC3CA",
"$X c #C9C6C7",
"%X c #D0CAC9",
"&X c #D5D2D0",
"*X c #DADDDE",
"=X c #DBE4E3",
"-X c #DFE8E6",
";X c #DFEAE9",
":X c #E1EDEC",
">X c #E4F0ED",
",X c #E7F7F5",
/* pixels */
"r r y 4 r u y r r u 2 r r f w w w 2 7 y y w w 7 r r y e w f y t y y 2 r y u w 7 w < w t y e w 2 ",
"u y u u ^ ^ y y u d w / f ^ w w w w y y d r y w y u d y f ^ y y u y 4 h h h w 7 r w t y y w r r ",
"f u y y y y y y y r d / r 4 w y r w 2 y r y u 4 r d d u u d y y d y f / 5 w r y r 5 2 d y y y 4 ",
"f u y 6 ^ u u y d r r f y w w u r 3 1 2 4 5 5 $ 5 r 5 3 y 6 5 4 5 3 2 d 6 3 4 y r r 2 5 r y r 2 ",
"4 w w 2 y w 2 2 w 7 < y 7 2 7 4 t =.$.=.=.=.-.$.=.-.=.=.:.=.=.=.$.=.$.O.` ` j 4 2 2 2 w 7 7 r 7 ",
"7 u f y y r f 2 y f f f r r f 4 | N.N.N.N.M.N.N.N.N.z.N.M.N.N.N.N.z.C.h.*.i...4 t w t f f / f r ",
"t h y y y d y w d d y y u r 5 3 _ M.M.M.M.M.M.M.M.M.M.M.M.M.M.M.M.M.M.h.*.s...5 d y u 5 y y r w ",
"d f y r y r 7 r r w r r 4 h O.X.#.h.h.h.h.h.h.h.h.h.h.h.h.h.h.h.h.h.j.r.W { L 8 9 8 y w y r 5 r ",
"y f r r y r 4 f y 2 r r 3 ..N.N.k.*.;.;.*.;.*.;.*.*.;.;.*.*.;.*.;.*.;.Y = v v S S 0 r r r y r w ",
"w y w 5 4 2 % 2 r 2 2 5 O ..N.M.k.;.;.;.;.;.;.y.;.y.y.;.;.;.;.;.;.;.y.W v S S S S 0 r 5 5 5 r r ",
"w f r   2 u r / f y u # $ ..k.j.g.;.y.;.;.;.;.;.;.;.;.;.;.;.;.;.;.;.y.Y : S S S b 0 8 8 7 < w t ",
"y h y 7 ) y y y y y w w ^ L ;.;.*.;.;.;.;.;.;.;.y.;.y.;.a.;.;.;.y.;.y.W v S S S b b b b q w y y ",
"r y w t d w r 5 w w 4 e d j a.y.y.y.y.y.;.;.*.;.*.;.;.*.*.;.;.*.*.*.;.Y b S S b b S b S q 5 5 w ",
"r r r f d r r r r w w w y j O.O.O.X.X.@.s.s.s.d.s.d.s.s.f.d.d.s.g.s.g.! v b S S S S b b q w w w ",
"r 5 w t y 5 r r w w 4 w y r r 5 4 5 @ j G.K.K.J.K.K.J.K.K.J.K.K.J.J.I.i.= S S S S S S b q w 5 r ",
"5 r 4 r 4 + @ < 2 2 4 % 2 2 2 7 2 7 < j G.K.G.J.J.J.J.J.J.J.J.J.J.J.P.p.= S b S b S b S q 7 < < ",
"y w t r 2 t r 2 r 2 2 w u w r / 7 < d  .H.L.L.L.L.I.L.L.L.L.L.L.K.K.U.d.= S S S S S v S q } f 2 ",
"u y f f y y r y r 4 4 4 r w t 5 2 w 1 j [. X X X}..X.X}..X.X.XXX}.{.oXn.o D S S S S S S q 2 w r ",
"y y y r w 5 w e r 4 4 2 2 4 t r 2 7 1 j {.XX X X X X X}. X X X XXX XoXn.o D S S S S b b : 4 2 w ",
"r 4 w r w 7 2 7 w < 2 < 7 4 2 2 < 7 @ } ].{.{. X X X X XXX X}. X}.].oXn.= D S S b S S b : 7 2 5 ",
"7 2 r r 5 r 7 f u 2 X.j.j.X.< r 7 # 7 e P P X.|. X X X X X X}.oXb.D I ;.l.l.t.: S S S S q t 7 < ",
"y y f w r y r y y 4 =.D.M.:.y ^ d w u u v l G |. X X X X X X}.oXx.o = &.N.N.s.v S S b b q f y 7 ",
"w y r 4 r r r r y 3 =.M.M.=.5 y f y r u q : H |. X X X X X X}.oXx.= v &.N.M.s.- b b v S q y r t ",
"r y y w w 4 e r r 3 -.N.M.=.5 f d y 2 j ~././..X X X X X X X X X(././.~.F.L.j.: D q r 8 r y y r ",
"y r u r r f u t u 4 $.N.M.=.2 w w 2 %  . XoXXX X X X X X X X X X XXXOX_.H.I.k.: b ; w r y w e w ",
"5 5 5 5 d f y y u 5 -.M.z.:.1 w w w w  .[. X}. X X X X X X X X X X X X).G.I.j.* v ; y y u w 5 6 ",
":.-.=.-...d y y u 3 :.N.N.+.2 u w r 4  .[. X X X X X X X X X X X X XoX).G.K.C.u.p.@.4 w h E./.R.",
"A.F.D.S.f.5 f r y 5 =.M.M.$.3 y r y $ ( [. X}. X X X X}. X X}.}.}. X X).G.J.F.M.C.s.4 4 / [.XX{.",
"9 g g a g 5 2 2 w 1 $.D.D.+.1 r % 2 $ ( XXOXoX.X}. X}.}. XoXOXoXoXoXOX_.P.I.H.z.D.f.< 2 h ].OX[.",
"2 y y r y t u 7 u d P ~ ~ L r w u e r ( g.c.b.`.'.`.`.`.'.B.c.c.v.v.c.s.~ &.~ Q Q P d y j m.C.m.",
"f h d d f y y w f y ; v v 8 d r u f y e x x B W.!.!.!.!.@X{ k m c c x k . . X X . * y 5 a 2.4.,.",
"y d r r y y w r w 5 & = =   3 4 3 3 6 r V m [ Q.W.Q.W.W.W.[ x c V C Z z l l l l l ; 6 4 t 7.0.7.",
"t u r r r r 4 f y 1 o.x.x.#.D J J J J J A <.q.@X@X#X#X#X#XT.b.Y.q.<.<.Z z z z z z z , M F U T T ",
"r y r r 7 2 < 2 y O Z.OX+X^.4.8.8.8.5.6.8.6.w.=X:X=X=X:X;X;X>X,XY.0.w.<.V Z Z Z Z Z Z Z B 6 3 5 ",
"w f w   7 y r / h 1 Z.OXOX^.5.0.8.8.8.9.7.6.w.*X-X=X=X=X=X=X=X;XV.1.0.<.B Z Z Z V V Z Z n 2 r u ",
"d h y w ) y y y d 2 >./.~.v.T R E E Q E 7.6.w.*X-X=X=X=X=X=X=X;XV.4.0.<.m Z Z V Z C H N F r r y ",
"r y r t y w r 4 w 4 8 - - & 5 5 4 3 d s 6.5.w.&X=X=X=X=X=X=X=X;XV.1.9.<.m Z V Z Z N d y 5 4 4 w ",
"r r r t y r r r r 4 8 S v 8 5 y r w 5 a 6.8.w.:X:X-X;X;X-X-X-X,XV.4.9.<.V Z Z Z Z N 4 y w w 5 r ",
"r r 5 u d w r r w 4 i J J i y r e w 2 a 2.3.q.%X%X%X%X%X%X%X$X&XB.,.q.E B B B B V v 2 r w 4 w 5 ",
"4 w 4 r 2 + $ 2 2 1 =.N.N.@.$ w % 2 2 r K L ] t.t.u.t.u.t.t.u.u.{ J T F > , , , , & % w 2 w < 2 ",
"r 7 y t % y t 2 r < $.C.z.+.2 / 4 < f f I K U u.p.t.u.t.p.u.u.p.{ ' ' F > , , , > > f u r } f 4 ",
"f y f f y y r y r $ $.N.z.=.5 w 2 w 2 w ] U U r.e.r.&.&.%.%.%.&.] G H p , , , , , e 3 1 2 2 r r ",
"y y r r r w w r r 1 =.N.N.=.5 y 2 5 2 t r.u.r.I U K u y r r w r 5 5 2 a I ' K K ' p 5 < 4 w 2 5 ",
"w 2 5 r w 4 4 % w @ +.z.M.+.@ 7 2 < @ 9 t.u.t.I K H w w r w 7 2 w 2 $ a ' K U K ' F # 2 2 2 < w ",
"w 2 r r 4 r 2 h u 4 -.M.N.+.1 t 7 < < a e.t.&.I K H t e w y 2 h y r 4 a I H H I U p < w w r w < ",
"f y u w r y r y y 5 $.N.z.=.6 h y 7 y f u s h H U H y 5 r d y r r r r r r d _ r.r.! y f y f y r ",
"5 r y 2 4 y r w w 3 =.N.M.=.5 d y y r y y w y K I H r 2 w r w r 4 r r 4 r 4 L u.p.! w d y y r r ",
"y y d w w y w y y 5 =.N.M.:.6 ^ / f t f ^ / f K U I f f f / f h h f f u f d | u.u.! 2 y y f t r "
};
